<?xml version="1.0" encoding="UTF-8"?>
<svg width="60px" height="40px" viewBox="0 0 60 40" version="1.1" xmlns="http://www.w3.org/2000/svg" xmlns:xlink="http://www.w3.org/1999/xlink">
    <!-- Generator: Sketch 43.1 (39012) - http://www.bohemiancoding.com/sketch -->
    <title>1 copy 2</title>
    <desc>Created with Sketch.</desc>
    <defs>
        <rect id="path-1" x="0" y="0" width="60" height="40"></rect>
    </defs>
    <g id="Page-1" stroke="none" stroke-width="1" fill="none" fill-rule="evenodd">
        <g id="1-copy-2">
            <g id="Rectangle-2">
                <use fill="#FFFFFF" fill-rule="evenodd" xlink:href="#path-1"></use>
                <rect stroke="#DDDDDD" stroke-width="1" x="0.5" y="0.5" width="59" height="39"></rect>
            </g>
            <g id="Group" transform="translate(12.000000, 8.000000)">
                <rect id="Rectangle-4" fill="#71DBD5" x="0" y="5" width="5" height="5"></rect>
                <rect id="Rectangle-4-Copy-27" fill="#71DBD5" x="30" y="5" width="5" height="5"></rect>
                <rect id="Rectangle-4-Copy-6" fill="#71DBD5" x="5" y="10" width="5" height="5"></rect>
                <rect id="Rectangle-4-Copy-12" fill="#71DBD5" x="0" y="15" width="5" height="5"></rect>
                <rect id="Rectangle-4-Copy-18" fill="#71DBD5" x="5" y="20" width="5" height="5"></rect>
                <rect id="Rectangle-4-Copy-28" fill="#B8EDEA" x="30" y="0" width="5" height="5"></rect>
                <rect id="Rectangle-4-Copy-3" fill="#71DBD5" x="15" y="5" width="5" height="5"></rect>
                <rect id="Rectangle-4-Copy-7" fill="#71DBD5" x="20" y="10" width="5" height="5"></rect>
                <rect id="Rectangle-4-Copy-13" fill="#71DBD5" x="15" y="15" width="5" height="5"></rect>
                <rect id="Rectangle-4-Copy-19" fill="#71DBD5" x="20" y="20" width="5" height="5"></rect>
                <rect id="Rectangle-4-Copy" fill="#B8EDEA" x="5" y="5" width="5" height="5"></rect>
                <rect id="Rectangle-4-Copy-8" fill="#B8EDEA" x="10" y="10" width="5" height="5"></rect>
                <rect id="Rectangle-4-Copy-14" fill="#B8EDEA" x="5" y="15" width="5" height="5"></rect>
                <rect id="Rectangle-4-Copy-20" fill="#B8EDEA" x="10" y="20" width="5" height="5"></rect>
                <rect id="Rectangle-4-Copy-29" fill="#71DBD5" x="25" y="0" width="5" height="5"></rect>
                <rect id="Rectangle-4-Copy-4" fill="#B8EDEA" x="20" y="5" width="5" height="5"></rect>
                <rect id="Rectangle-4-Copy-9" fill="#B8EDEA" x="25" y="10" width="5" height="5"></rect>
                <rect id="Rectangle-4-Copy-15" fill="#B8EDEA" x="20" y="15" width="5" height="5"></rect>
                <rect id="Rectangle-4-Copy-25" fill="#B8EDEA" x="30" y="15" width="5" height="5"></rect>
                <rect id="Rectangle-4-Copy-21" fill="#B8EDEA" x="25" y="20" width="5" height="5"></rect>
                <rect id="Rectangle-4-Copy-2" fill="#94E4E0" x="10" y="5" width="5" height="5"></rect>
                <rect id="Rectangle-4-Copy-10" fill="#94E4E0" x="15" y="10" width="5" height="5"></rect>
                <rect id="Rectangle-4-Copy-16" fill="#94E4E0" x="10" y="15" width="5" height="5"></rect>
                <rect id="Rectangle-4-Copy-22" fill="#94E4E0" x="15" y="20" width="5" height="5"></rect>
                <rect id="Rectangle-4-Copy-26" fill="#94E4E0" x="0" y="20" width="5" height="5"></rect>
                <rect id="Rectangle-4-Copy-5" fill="#94E4E0" x="25" y="5" width="5" height="5"></rect>
                <rect id="Rectangle-4-Copy-11" fill="#94E4E0" x="30" y="10" width="5" height="5"></rect>
                <rect id="Rectangle-4-Copy-24" fill="#94E4E0" x="0" y="10" width="5" height="5"></rect>
                <rect id="Rectangle-4-Copy-17" fill="#94E4E0" x="25" y="15" width="5" height="5"></rect>
                <rect id="Rectangle-4-Copy-23" fill="#94E4E0" x="30" y="20" width="5" height="5"></rect>
            </g>
        </g>
    </g>
</svg>