<?xml version="1.0" encoding="utf-8"?>
<!-- Generator: Adobe Illustrator 16.0.0, SVG Export Plug-In . SVG Version: 6.00 Build 0)  -->
<!DOCTYPE svg PUBLIC "-//W3C//DTD SVG 1.1//EN" "http://www.w3.org/Graphics/SVG/1.1/DTD/svg11.dtd">
<svg version="1.1" id="图层_1" xmlns="http://www.w3.org/2000/svg" xmlns:xlink="http://www.w3.org/1999/xlink" x="0px" y="0px"
	 width="58.835px" height="39.195px" viewBox="0 0 58.835 39.195" enable-background="new 0 0 58.835 39.195" xml:space="preserve">
<g>
	<g>
		<defs>
			<rect id="SVGID_1_" x="169.951" y="-52" width="58.835" height="39.195"/>
		</defs>
		<clipPath id="SVGID_2_">
			<use xlink:href="#SVGID_1_"  overflow="visible"/>
		</clipPath>
		<g clip-path="url(#SVGID_2_)">
			<defs>
				<rect id="SVGID_3_" x="-589.049" y="-344" width="1440" height="1097"/>
			</defs>
			<clipPath id="SVGID_4_">
				<use xlink:href="#SVGID_3_"  overflow="visible"/>
			</clipPath>
		</g>
	</g>
	<g>
		<defs>
			<rect id="SVGID_5_" x="169.951" y="-52" width="58.835" height="39.195"/>
		</defs>
		<clipPath id="SVGID_6_">
			<use xlink:href="#SVGID_5_"  overflow="visible"/>
		</clipPath>
		<g clip-path="url(#SVGID_6_)">
			<defs>
				<rect id="SVGID_7_" x="-589.049" y="-344" width="1440" height="1097"/>
			</defs>
			<clipPath id="SVGID_8_">
				<use xlink:href="#SVGID_7_"  overflow="visible"/>
			</clipPath>
		</g>
	</g>
	<g>
		<defs>
			<polygon id="SVGID_9_" points="196.839,-27.614 198.128,-24.691 200.806,-25.765 204.677,-39.039 204.64,-39.056 			"/>
		</defs>
		<clipPath id="SVGID_10_">
			<use xlink:href="#SVGID_9_"  overflow="visible"/>
		</clipPath>
		<g clip-path="url(#SVGID_10_)">
			<defs>
				<rect id="SVGID_11_" x="-589.049" y="-344" width="1440" height="1097"/>
			</defs>
			<clipPath id="SVGID_12_">
				<use xlink:href="#SVGID_11_"  overflow="visible"/>
			</clipPath>
		</g>
	</g>
	<g>
		<defs>
			<path id="SVGID_13_" d="M184.953-29.65c0,3.716,1.431,7.101,3.777,9.646l2.062-1.308c-1.98-2.007-3.252-4.7-3.414-7.686h1.857
				v-1.169h-1.863c0.265-6.161,5.253-11.113,11.477-11.41v1.661h1.184v-1.661c6.225,0.297,11.213,5.249,11.478,11.41h-1.869v1.169
				h1.862c-0.16,2.953-1.406,5.62-3.35,7.62l1.998,1.373c2.348-2.545,3.779-5.93,3.779-9.646
				c-0.001-7.909-6.488-14.322-14.49-14.322S184.953-37.56,184.953-29.65z"/>
		</defs>
		<clipPath id="SVGID_14_">
			<use xlink:href="#SVGID_13_"  overflow="visible"/>
		</clipPath>
		<g clip-path="url(#SVGID_14_)">
			<defs>
				<rect id="SVGID_15_" x="-589.049" y="-344" width="1440" height="1097"/>
			</defs>
			<clipPath id="SVGID_16_">
				<use xlink:href="#SVGID_15_"  overflow="visible"/>
			</clipPath>
		</g>
	</g>
</g>
<g>
	<g>
		<defs>
			<rect id="SVGID_17_" y="-101.783" width="58.835" height="39.195"/>
		</defs>
		<clipPath id="SVGID_18_">
			<use xlink:href="#SVGID_17_"  overflow="visible"/>
		</clipPath>
		<g clip-path="url(#SVGID_18_)">
			<defs>
				<rect id="SVGID_19_" x="-588" y="-343.783" width="1440" height="1097"/>
			</defs>
			<clipPath id="SVGID_20_">
				<use xlink:href="#SVGID_19_"  overflow="visible"/>
			</clipPath>
		</g>
	</g>
	<g>
		<defs>
			<rect id="SVGID_33_" y="-101.783" width="58.835" height="39.195"/>
		</defs>
		<clipPath id="SVGID_22_">
			<use xlink:href="#SVGID_33_"  overflow="visible"/>
		</clipPath>
		<g clip-path="url(#SVGID_22_)">
			<defs>
				<rect id="SVGID_35_" x="-588" y="-343.783" width="1440" height="1097"/>
			</defs>
			<clipPath id="SVGID_24_">
				<use xlink:href="#SVGID_35_"  overflow="visible"/>
			</clipPath>
		</g>
	</g>
</g>
<g>
	<g>
		<defs>
			<rect id="SVGID_37_" x="85" y="-101.783" width="58.835" height="39.195"/>
		</defs>
		<clipPath id="SVGID_26_">
			<use xlink:href="#SVGID_37_"  overflow="visible"/>
		</clipPath>
		<g clip-path="url(#SVGID_26_)">
			<defs>
				<rect id="SVGID_39_" x="-588" y="-343.783" width="1440" height="1097"/>
			</defs>
			<clipPath id="SVGID_28_">
				<use xlink:href="#SVGID_39_"  overflow="visible"/>
			</clipPath>
		</g>
	</g>
	<g>
		<defs>
			<rect id="SVGID_41_" x="85" y="-101.783" width="58.835" height="39.195"/>
		</defs>
		<clipPath id="SVGID_30_">
			<use xlink:href="#SVGID_41_"  overflow="visible"/>
		</clipPath>
		<g clip-path="url(#SVGID_30_)">
			<defs>
				<rect id="SVGID_43_" x="-588" y="-343.783" width="1440" height="1097"/>
			</defs>
			<clipPath id="SVGID_32_">
				<use xlink:href="#SVGID_43_"  overflow="visible"/>
			</clipPath>
		</g>
	</g>
	<g>
		<defs>
			<rect id="SVGID_45_" x="89" y="-76.116" width="6.106" height="12.278"/>
		</defs>
		<clipPath id="SVGID_34_">
			<use xlink:href="#SVGID_45_"  overflow="visible"/>
		</clipPath>
		<g clip-path="url(#SVGID_34_)">
			<defs>
				<rect id="SVGID_47_" x="-588" y="-343.783" width="1440" height="1097"/>
			</defs>
			<clipPath id="SVGID_36_">
				<use xlink:href="#SVGID_47_"  overflow="visible"/>
			</clipPath>
		</g>
	</g>
	<g>
		<defs>
			<rect id="SVGID_49_" x="99.95" y="-87.05" width="6.106" height="23.467"/>
		</defs>
		<clipPath id="SVGID_38_">
			<use xlink:href="#SVGID_49_"  overflow="visible"/>
		</clipPath>
		<g clip-path="url(#SVGID_38_)">
			<defs>
				<rect id="SVGID_51_" x="-588" y="-343.783" width="1440" height="1097"/>
			</defs>
			<clipPath id="SVGID_40_">
				<use xlink:href="#SVGID_51_"  overflow="visible"/>
			</clipPath>
		</g>
	</g>
	<g>
		<defs>
			<rect id="SVGID_53_" x="111.995" y="-83.004" width="6.106" height="19.216"/>
		</defs>
		<clipPath id="SVGID_42_">
			<use xlink:href="#SVGID_53_"  overflow="visible"/>
		</clipPath>
		<g clip-path="url(#SVGID_42_)">
			<defs>
				<rect id="SVGID_55_" x="-588" y="-343.783" width="1440" height="1097"/>
			</defs>
			<clipPath id="SVGID_44_">
				<use xlink:href="#SVGID_55_"  overflow="visible"/>
			</clipPath>
		</g>
	</g>
	<g>
		<defs>
			<rect id="SVGID_57_" x="122.944" y="-96.783" width="6.106" height="33"/>
		</defs>
		<clipPath id="SVGID_46_">
			<use xlink:href="#SVGID_57_"  overflow="visible"/>
		</clipPath>
		<g clip-path="url(#SVGID_46_)">
			<defs>
				<rect id="SVGID_59_" x="-588" y="-343.783" width="1440" height="1097"/>
			</defs>
			<clipPath id="SVGID_48_">
				<use xlink:href="#SVGID_59_"  overflow="visible"/>
			</clipPath>
		</g>
	</g>
	<g>
		<defs>
			<rect id="SVGID_61_" x="133.895" y="-71.05" width="6.105" height="7.212"/>
		</defs>
		<clipPath id="SVGID_50_">
			<use xlink:href="#SVGID_61_"  overflow="visible"/>
		</clipPath>
		<g clip-path="url(#SVGID_50_)">
			<defs>
				<rect id="SVGID_63_" x="-588" y="-343.783" width="1440" height="1097"/>
			</defs>
			<clipPath id="SVGID_52_">
				<use xlink:href="#SVGID_63_"  overflow="visible"/>
			</clipPath>
		</g>
	</g>
</g>
<g>
	<g>
		<defs>
			<rect id="SVGID_65_" x="-84.784" y="-101.783" width="58.835" height="39.195"/>
		</defs>
		<clipPath id="SVGID_54_">
			<use xlink:href="#SVGID_65_"  overflow="visible"/>
		</clipPath>
		<g clip-path="url(#SVGID_54_)">
			<defs>
				<rect id="SVGID_67_" x="-587.784" y="-343.783" width="1440" height="1097"/>
			</defs>
			<clipPath id="SVGID_56_">
				<use xlink:href="#SVGID_67_"  overflow="visible"/>
			</clipPath>
		</g>
	</g>
	<g>
		<defs>
			<rect id="SVGID_69_" x="-84.784" y="-101.783" width="58.835" height="39.195"/>
		</defs>
		<clipPath id="SVGID_58_">
			<use xlink:href="#SVGID_69_"  overflow="visible"/>
		</clipPath>
		<g clip-path="url(#SVGID_58_)">
			<defs>
				<rect id="SVGID_71_" x="-587.784" y="-343.783" width="1440" height="1097"/>
			</defs>
			<clipPath id="SVGID_60_">
				<use xlink:href="#SVGID_71_"  overflow="visible"/>
			</clipPath>
		</g>
	</g>
	<g>
		<defs>
			<rect id="SVGID_73_" x="-84.784" y="-101.783" width="58.835" height="39.195"/>
		</defs>
		<clipPath id="SVGID_62_">
			<use xlink:href="#SVGID_73_"  overflow="visible"/>
		</clipPath>
		<g clip-path="url(#SVGID_62_)">
			<defs>
				<rect id="SVGID_75_" x="-587.784" y="-343.783" width="1440" height="1097"/>
			</defs>
			<clipPath id="SVGID_64_">
				<use xlink:href="#SVGID_75_"  overflow="visible"/>
			</clipPath>
		</g>
	</g>
</g>
<g>
	<g>
		<defs>
			<rect id="SVGID_77_" x="169.951" y="-101.783" width="58.835" height="39.195"/>
		</defs>
		<clipPath id="SVGID_66_">
			<use xlink:href="#SVGID_77_"  overflow="visible"/>
		</clipPath>
		<g clip-path="url(#SVGID_66_)">
			<defs>
				<rect id="SVGID_79_" x="-587.884" y="-343.783" width="1440" height="1097"/>
			</defs>
			<clipPath id="SVGID_68_">
				<use xlink:href="#SVGID_79_"  overflow="visible"/>
			</clipPath>
		</g>
	</g>
	<g>
		<defs>
			<rect id="SVGID_81_" x="169.951" y="-101.783" width="58.835" height="39.195"/>
		</defs>
		<clipPath id="SVGID_70_">
			<use xlink:href="#SVGID_81_"  overflow="visible"/>
		</clipPath>
		<g clip-path="url(#SVGID_70_)">
			<defs>
				<rect id="SVGID_83_" x="-587.884" y="-343.783" width="1440" height="1097"/>
			</defs>
			<clipPath id="SVGID_72_">
				<use xlink:href="#SVGID_83_"  overflow="visible"/>
			</clipPath>
		</g>
	</g>
	<g>
		<defs>
			<rect id="SVGID_85_" x="170.951" y="-88.783" width="46" height="5"/>
		</defs>
		<clipPath id="SVGID_74_">
			<use xlink:href="#SVGID_85_"  overflow="visible"/>
		</clipPath>
		<g clip-path="url(#SVGID_74_)">
			<defs>
				<rect id="SVGID_87_" x="-587.884" y="-343.783" width="1440" height="1097"/>
			</defs>
			<clipPath id="SVGID_76_">
				<use xlink:href="#SVGID_87_"  overflow="visible"/>
			</clipPath>
		</g>
	</g>
	<g>
		<defs>
			<rect id="SVGID_89_" x="170.951" y="-79.783" width="13" height="5"/>
		</defs>
		<clipPath id="SVGID_78_">
			<use xlink:href="#SVGID_89_"  overflow="visible"/>
		</clipPath>
		<g clip-path="url(#SVGID_78_)">
			<defs>
				<rect id="SVGID_91_" x="-587.884" y="-343.783" width="1440" height="1097"/>
			</defs>
			<clipPath id="SVGID_80_">
				<use xlink:href="#SVGID_91_"  overflow="visible"/>
			</clipPath>
		</g>
	</g>
	<g>
		<defs>
			<rect id="SVGID_93_" x="170.951" y="-70.783" width="37" height="5"/>
		</defs>
		<clipPath id="SVGID_82_">
			<use xlink:href="#SVGID_93_"  overflow="visible"/>
		</clipPath>
		<g clip-path="url(#SVGID_82_)">
			<defs>
				<rect id="SVGID_95_" x="-587.884" y="-343.783" width="1440" height="1097"/>
			</defs>
			<clipPath id="SVGID_84_">
				<use xlink:href="#SVGID_95_"  overflow="visible"/>
			</clipPath>
		</g>
	</g>
	<g>
		<defs>
			<rect id="SVGID_97_" x="170.951" y="-97.783" width="24" height="5"/>
		</defs>
		<clipPath id="SVGID_86_">
			<use xlink:href="#SVGID_97_"  overflow="visible"/>
		</clipPath>
		<g clip-path="url(#SVGID_86_)">
			<defs>
				<rect id="SVGID_99_" x="-587.884" y="-343.783" width="1440" height="1097"/>
			</defs>
			<clipPath id="SVGID_88_">
				<use xlink:href="#SVGID_99_"  overflow="visible"/>
			</clipPath>
		</g>
	</g>
</g>
<g>
	<g>
		<defs>
			<rect id="SVGID_101_" x="-84.784" y="-52" width="58.835" height="39.195"/>
		</defs>
		<clipPath id="SVGID_90_">
			<use xlink:href="#SVGID_101_"  overflow="visible"/>
		</clipPath>
		<g clip-path="url(#SVGID_90_)">
			<defs>
				<rect id="SVGID_103_" x="-587.784" y="-344" width="1440" height="1097"/>
			</defs>
			<clipPath id="SVGID_92_">
				<use xlink:href="#SVGID_103_"  overflow="visible"/>
			</clipPath>
		</g>
	</g>
	<g>
		<defs>
			<rect id="SVGID_105_" x="-84.784" y="-52" width="58.835" height="39.195"/>
		</defs>
		<clipPath id="SVGID_94_">
			<use xlink:href="#SVGID_105_"  overflow="visible"/>
		</clipPath>
		<g clip-path="url(#SVGID_94_)">
			<defs>
				<rect id="SVGID_107_" x="-587.784" y="-344" width="1440" height="1097"/>
			</defs>
			<clipPath id="SVGID_96_">
				<use xlink:href="#SVGID_107_"  overflow="visible"/>
			</clipPath>
		</g>
	</g>
	<g>
		<defs>
			<path id="SVGID_109_" d="M-69.747-30.771v-1.471c0.061-0.453,0.114-0.907,0.182-1.358c0.842-5.591,5.292-10.148,10.895-11.149
				c0.573-0.103,1.153-0.165,1.729-0.245h0.185c-0.003,0.03-0.01,0.061-0.01,0.091c0,4.993-0.002,9.986,0.009,14.979
				c0,0.163,0.088,0.356,0.198,0.482c2.56,2.951,5.129,5.895,7.696,8.84c0.071,0.082,0.136,0.169,0.211,0.263
				c-0.093,0.067-0.156,0.119-0.224,0.162c-1.484,0.948-3.09,1.596-4.826,1.91c-0.583,0.105-1.173,0.168-1.76,0.25h-1.478
				c-0.456-0.061-0.912-0.114-1.367-0.182c-5.594-0.833-10.201-5.285-11.189-10.821C-69.6-29.602-69.665-30.188-69.747-30.771z"/>
		</defs>
		<clipPath id="SVGID_98_">
			<use xlink:href="#SVGID_109_"  overflow="visible"/>
		</clipPath>
		<g clip-path="url(#SVGID_98_)">
			<defs>
				<rect id="SVGID_111_" x="-587.784" y="-344" width="1440" height="1097"/>
			</defs>
			<clipPath id="SVGID_100_">
				<use xlink:href="#SVGID_111_"  overflow="visible"/>
			</clipPath>
		</g>
	</g>
	<g>
		<defs>
			<path id="SVGID_113_" d="M-42.818-32.871v2.447h-13.4v-14.574h1.222c0.538,0.076,1.08,0.136,1.614,0.232
				c5.273,0.957,9.361,5.025,10.334,10.288C-42.949-33.946-42.894-33.407-42.818-32.871z"/>
		</defs>
		<clipPath id="SVGID_102_">
			<use xlink:href="#SVGID_113_"  overflow="visible"/>
		</clipPath>
		<g clip-path="url(#SVGID_102_)">
			<defs>
				<rect id="SVGID_115_" x="-587.784" y="-344" width="1440" height="1097"/>
			</defs>
			<clipPath id="SVGID_104_">
				<use xlink:href="#SVGID_115_"  overflow="visible"/>
			</clipPath>
		</g>
	</g>
	<g>
		<defs>
			<path id="SVGID_117_" d="M-56.197-29.799c0.029-0.02,0.059-0.057,0.089-0.057c4.387-0.003,8.775-0.003,13.163-0.002
				c0.079,0,0.186-0.029,0.148,0.117c-0.02,0.054-0.049,0.106-0.059,0.162c-0.416,2.521-1.48,4.731-3.188,6.635
				c-0.698,0.778-1.483,1.46-2.363,2.047c-0.073-0.077-0.135-0.14-0.192-0.206c-1.333-1.528-2.664-3.059-3.999-4.586
				C-53.796-27.061-54.997-28.429-56.197-29.799z"/>
		</defs>
		<clipPath id="SVGID_106_">
			<use xlink:href="#SVGID_117_"  overflow="visible"/>
		</clipPath>
		<g clip-path="url(#SVGID_106_)">
			<defs>
				<rect id="SVGID_119_" x="-587.784" y="-344" width="1440" height="1097"/>
			</defs>
			<clipPath id="SVGID_108_">
				<use xlink:href="#SVGID_119_"  overflow="visible"/>
			</clipPath>
		</g>
	</g>
</g>
<g>
	<g>
		<defs>
			<rect id="SVGID_121_" y="-52" width="58.835" height="39.195"/>
		</defs>
		<clipPath id="SVGID_110_">
			<use xlink:href="#SVGID_121_"  overflow="visible"/>
		</clipPath>
		<g clip-path="url(#SVGID_110_)">
			<defs>
				<rect id="SVGID_123_" x="-588" y="-344" width="1440" height="1097"/>
			</defs>
			<clipPath id="SVGID_112_">
				<use xlink:href="#SVGID_123_"  overflow="visible"/>
			</clipPath>
		</g>
	</g>
	<g>
		<defs>
			<rect id="SVGID_125_" y="-52" width="58.835" height="39.195"/>
		</defs>
		<clipPath id="SVGID_114_">
			<use xlink:href="#SVGID_125_"  overflow="visible"/>
		</clipPath>
		<g clip-path="url(#SVGID_114_)">
			<defs>
				<rect id="SVGID_127_" x="-588" y="-344" width="1440" height="1097"/>
			</defs>
			<clipPath id="SVGID_116_">
				<use xlink:href="#SVGID_127_"  overflow="visible"/>
			</clipPath>
		</g>
	</g>
	<g>
		<defs>
			<ellipse id="SVGID_129_" cx="14.357" cy="-41.412" rx="1.893" ry="1.882"/>
		</defs>
		<clipPath id="SVGID_118_">
			<use xlink:href="#SVGID_129_"  overflow="visible"/>
		</clipPath>
		<g clip-path="url(#SVGID_118_)">
			<defs>
				<rect id="SVGID_131_" x="-588" y="-344" width="1440" height="1097"/>
			</defs>
			<clipPath id="SVGID_120_">
				<use xlink:href="#SVGID_131_"  overflow="visible"/>
			</clipPath>
		</g>
	</g>
	<g>
		<defs>
			<ellipse id="SVGID_133_" cx="17.196" cy="-34.824" rx="1.893" ry="1.882"/>
		</defs>
		<clipPath id="SVGID_122_">
			<use xlink:href="#SVGID_133_"  overflow="visible"/>
		</clipPath>
		<g clip-path="url(#SVGID_122_)">
			<defs>
				<rect id="SVGID_135_" x="-588" y="-344" width="1440" height="1097"/>
			</defs>
			<clipPath id="SVGID_124_">
				<use xlink:href="#SVGID_135_"  overflow="visible"/>
			</clipPath>
		</g>
	</g>
	<g>
		<defs>
			<ellipse id="SVGID_137_" cx="19.089" cy="-37.647" rx="1.893" ry="1.882"/>
		</defs>
		<clipPath id="SVGID_126_">
			<use xlink:href="#SVGID_137_"  overflow="visible"/>
		</clipPath>
		<g clip-path="url(#SVGID_126_)">
			<defs>
				<rect id="SVGID_139_" x="-588" y="-344" width="1440" height="1097"/>
			</defs>
			<clipPath id="SVGID_128_">
				<use xlink:href="#SVGID_139_"  overflow="visible"/>
			</clipPath>
		</g>
	</g>
	<g>
		<defs>
			<ellipse id="SVGID_141_" cx="19.089" cy="-44.235" rx="1.893" ry="1.882"/>
		</defs>
		<clipPath id="SVGID_130_">
			<use xlink:href="#SVGID_141_"  overflow="visible"/>
		</clipPath>
		<g clip-path="url(#SVGID_130_)">
			<defs>
				<rect id="SVGID_143_" x="-588" y="-344" width="1440" height="1097"/>
			</defs>
			<clipPath id="SVGID_132_">
				<use xlink:href="#SVGID_143_"  overflow="visible"/>
			</clipPath>
		</g>
	</g>
	<g>
		<defs>
			<ellipse id="SVGID_145_" cx="23.821" cy="-33.882" rx="1.893" ry="1.882"/>
		</defs>
		<clipPath id="SVGID_134_">
			<use xlink:href="#SVGID_145_"  overflow="visible"/>
		</clipPath>
		<g clip-path="url(#SVGID_134_)">
			<defs>
				<rect id="SVGID_147_" x="-588" y="-344" width="1440" height="1097"/>
			</defs>
			<clipPath id="SVGID_136_">
				<use xlink:href="#SVGID_147_"  overflow="visible"/>
			</clipPath>
		</g>
	</g>
	<g>
		<defs>
			<ellipse id="SVGID_149_" cx="30.446" cy="-34.824" rx="1.893" ry="1.882"/>
		</defs>
		<clipPath id="SVGID_138_">
			<use xlink:href="#SVGID_149_"  overflow="visible"/>
		</clipPath>
		<g clip-path="url(#SVGID_138_)">
			<defs>
				<rect id="SVGID_151_" x="-588" y="-344" width="1440" height="1097"/>
			</defs>
			<clipPath id="SVGID_140_">
				<use xlink:href="#SVGID_151_"  overflow="visible"/>
			</clipPath>
		</g>
	</g>
	<g>
		<defs>
			<ellipse id="SVGID_153_" cx="29.5" cy="-28.235" rx="1.893" ry="1.882"/>
		</defs>
		<clipPath id="SVGID_142_">
			<use xlink:href="#SVGID_153_"  overflow="visible"/>
		</clipPath>
		<g clip-path="url(#SVGID_142_)">
			<defs>
				<rect id="SVGID_155_" x="-588" y="-344" width="1440" height="1097"/>
			</defs>
			<clipPath id="SVGID_144_">
				<use xlink:href="#SVGID_155_"  overflow="visible"/>
			</clipPath>
		</g>
	</g>
	<g>
		<defs>
			<ellipse id="SVGID_157_" cx="35.179" cy="-25.412" rx="1.893" ry="1.882"/>
		</defs>
		<clipPath id="SVGID_146_">
			<use xlink:href="#SVGID_157_"  overflow="visible"/>
		</clipPath>
		<g clip-path="url(#SVGID_146_)">
			<defs>
				<rect id="SVGID_159_" x="-588" y="-344" width="1440" height="1097"/>
			</defs>
			<clipPath id="SVGID_148_">
				<use xlink:href="#SVGID_159_"  overflow="visible"/>
			</clipPath>
		</g>
	</g>
	<g>
		<defs>
			<ellipse id="SVGID_161_" cx="43.696" cy="-33.882" rx="1.893" ry="1.882"/>
		</defs>
		<clipPath id="SVGID_150_">
			<use xlink:href="#SVGID_161_"  overflow="visible"/>
		</clipPath>
		<g clip-path="url(#SVGID_150_)">
			<defs>
				<rect id="SVGID_163_" x="-588" y="-344" width="1440" height="1097"/>
			</defs>
			<clipPath id="SVGID_152_">
				<use xlink:href="#SVGID_163_"  overflow="visible"/>
			</clipPath>
		</g>
	</g>
	<g>
		<defs>
			<ellipse id="SVGID_165_" cx="41.804" cy="-25.412" rx="1.893" ry="1.882"/>
		</defs>
		<clipPath id="SVGID_154_">
			<use xlink:href="#SVGID_165_"  overflow="visible"/>
		</clipPath>
		<g clip-path="url(#SVGID_154_)">
			<defs>
				<rect id="SVGID_167_" x="-588" y="-344" width="1440" height="1097"/>
			</defs>
			<clipPath id="SVGID_156_">
				<use xlink:href="#SVGID_167_"  overflow="visible"/>
			</clipPath>
		</g>
	</g>
	<g>
		<defs>
			<ellipse id="SVGID_169_" cx="48.429" cy="-23.53" rx="1.893" ry="1.882"/>
		</defs>
		<clipPath id="SVGID_158_">
			<use xlink:href="#SVGID_169_"  overflow="visible"/>
		</clipPath>
		<g clip-path="url(#SVGID_158_)">
			<defs>
				<rect id="SVGID_171_" x="-588" y="-344" width="1440" height="1097"/>
			</defs>
			<clipPath id="SVGID_160_">
				<use xlink:href="#SVGID_171_"  overflow="visible"/>
			</clipPath>
		</g>
	</g>
	<g>
		<defs>
			<ellipse id="SVGID_173_" cx="54.107" cy="-24.47" rx="1.893" ry="1.882"/>
		</defs>
		<clipPath id="SVGID_162_">
			<use xlink:href="#SVGID_173_"  overflow="visible"/>
		</clipPath>
		<g clip-path="url(#SVGID_162_)">
			<defs>
				<rect id="SVGID_175_" x="-588" y="-344" width="1440" height="1097"/>
			</defs>
			<clipPath id="SVGID_164_">
				<use xlink:href="#SVGID_175_"  overflow="visible"/>
			</clipPath>
		</g>
	</g>
	<g>
		<defs>
			<ellipse id="SVGID_177_" cx="52.214" cy="-17.882" rx="1.893" ry="1.882"/>
		</defs>
		<clipPath id="SVGID_166_">
			<use xlink:href="#SVGID_177_"  overflow="visible"/>
		</clipPath>
		<g clip-path="url(#SVGID_166_)">
			<defs>
				<rect id="SVGID_179_" x="-588" y="-344" width="1440" height="1097"/>
			</defs>
			<clipPath id="SVGID_168_">
				<use xlink:href="#SVGID_179_"  overflow="visible"/>
			</clipPath>
		</g>
	</g>
	<g>
		<defs>
			<ellipse id="SVGID_181_" cx="47.482" cy="-28.235" rx="1.893" ry="1.882"/>
		</defs>
		<clipPath id="SVGID_170_">
			<use xlink:href="#SVGID_181_"  overflow="visible"/>
		</clipPath>
		<g clip-path="url(#SVGID_170_)">
			<defs>
				<rect id="SVGID_183_" x="-588" y="-344" width="1440" height="1097"/>
			</defs>
			<clipPath id="SVGID_172_">
				<use xlink:href="#SVGID_183_"  overflow="visible"/>
			</clipPath>
		</g>
	</g>
	<g>
		<defs>
			<ellipse id="SVGID_185_" cx="36.125" cy="-31.059" rx="1.893" ry="1.882"/>
		</defs>
		<clipPath id="SVGID_174_">
			<use xlink:href="#SVGID_185_"  overflow="visible"/>
		</clipPath>
		<g clip-path="url(#SVGID_174_)">
			<defs>
				<rect id="SVGID_187_" x="-588" y="-344" width="1440" height="1097"/>
			</defs>
			<clipPath id="SVGID_176_">
				<use xlink:href="#SVGID_187_"  overflow="visible"/>
			</clipPath>
		</g>
	</g>
	<g>
		<defs>
			<ellipse id="SVGID_189_" cx="21.929" cy="-31.059" rx="1.893" ry="1.882"/>
		</defs>
		<clipPath id="SVGID_178_">
			<use xlink:href="#SVGID_189_"  overflow="visible"/>
		</clipPath>
		<g clip-path="url(#SVGID_178_)">
			<defs>
				<rect id="SVGID_191_" x="-588" y="-344" width="1440" height="1097"/>
			</defs>
			<clipPath id="SVGID_180_">
				<use xlink:href="#SVGID_191_"  overflow="visible"/>
			</clipPath>
		</g>
	</g>
	<g>
		<defs>
			<ellipse id="SVGID_193_" cx="26.661" cy="-38.588" rx="1.893" ry="1.882"/>
		</defs>
		<clipPath id="SVGID_182_">
			<use xlink:href="#SVGID_193_"  overflow="visible"/>
		</clipPath>
		<g clip-path="url(#SVGID_182_)">
			<defs>
				<rect id="SVGID_195_" x="-588" y="-344" width="1440" height="1097"/>
			</defs>
			<clipPath id="SVGID_184_">
				<use xlink:href="#SVGID_195_"  overflow="visible"/>
			</clipPath>
		</g>
	</g>
	<g>
		<defs>
			<ellipse id="SVGID_197_" cx="8.679" cy="-34.824" rx="1.893" ry="1.882"/>
		</defs>
		<clipPath id="SVGID_186_">
			<use xlink:href="#SVGID_197_"  overflow="visible"/>
		</clipPath>
		<g clip-path="url(#SVGID_186_)">
			<defs>
				<rect id="SVGID_199_" x="-588" y="-344" width="1440" height="1097"/>
			</defs>
			<clipPath id="SVGID_188_">
				<use xlink:href="#SVGID_199_"  overflow="visible"/>
			</clipPath>
		</g>
	</g>
	<g>
		<defs>
			<ellipse id="SVGID_201_" cx="11.518" cy="-40.47" rx="1.893" ry="1.882"/>
		</defs>
		<clipPath id="SVGID_190_">
			<use xlink:href="#SVGID_201_"  overflow="visible"/>
		</clipPath>
		<g clip-path="url(#SVGID_190_)">
			<defs>
				<rect id="SVGID_203_" x="-588" y="-344" width="1440" height="1097"/>
			</defs>
			<clipPath id="SVGID_192_">
				<use xlink:href="#SVGID_203_"  overflow="visible"/>
			</clipPath>
		</g>
	</g>
	<g>
		<defs>
			<ellipse id="SVGID_205_" cx="5.839" cy="-40.47" rx="1.893" ry="1.882"/>
		</defs>
		<clipPath id="SVGID_194_">
			<use xlink:href="#SVGID_205_"  overflow="visible"/>
		</clipPath>
		<g clip-path="url(#SVGID_194_)">
			<defs>
				<rect id="SVGID_207_" x="-588" y="-344" width="1440" height="1097"/>
			</defs>
			<clipPath id="SVGID_196_">
				<use xlink:href="#SVGID_207_"  overflow="visible"/>
			</clipPath>
		</g>
	</g>
	<g>
		<defs>
			<ellipse id="SVGID_209_" cx="10.571" cy="-46.118" rx="1.893" ry="1.882"/>
		</defs>
		<clipPath id="SVGID_198_">
			<use xlink:href="#SVGID_209_"  overflow="visible"/>
		</clipPath>
		<g clip-path="url(#SVGID_198_)">
			<defs>
				<rect id="SVGID_211_" x="-588" y="-344" width="1440" height="1097"/>
			</defs>
			<clipPath id="SVGID_200_">
				<use xlink:href="#SVGID_211_"  overflow="visible"/>
			</clipPath>
		</g>
	</g>
	<g>
		<defs>
			<ellipse id="SVGID_213_" cx="4.893" cy="-46.118" rx="1.893" ry="1.882"/>
		</defs>
		<clipPath id="SVGID_202_">
			<use xlink:href="#SVGID_213_"  overflow="visible"/>
		</clipPath>
		<g clip-path="url(#SVGID_202_)">
			<defs>
				<rect id="SVGID_215_" x="-588" y="-344" width="1440" height="1097"/>
			</defs>
			<clipPath id="SVGID_204_">
				<use xlink:href="#SVGID_215_"  overflow="visible"/>
			</clipPath>
		</g>
	</g>
</g>
<g>
	<g>
		<defs>
			<rect id="SVGID_217_" x="85" y="-52" width="58.835" height="39.195"/>
		</defs>
		<clipPath id="SVGID_206_">
			<use xlink:href="#SVGID_217_"  overflow="visible"/>
		</clipPath>
		<g clip-path="url(#SVGID_206_)">
			<defs>
				<rect id="SVGID_219_" x="-588" y="-344" width="1440" height="1097"/>
			</defs>
			<clipPath id="SVGID_208_">
				<use xlink:href="#SVGID_219_"  overflow="visible"/>
			</clipPath>
		</g>
	</g>
	<g>
		<defs>
			<rect id="SVGID_221_" x="85" y="-52" width="58.835" height="39.195"/>
		</defs>
		<clipPath id="SVGID_210_">
			<use xlink:href="#SVGID_221_"  overflow="visible"/>
		</clipPath>
		<g clip-path="url(#SVGID_210_)">
			<defs>
				<rect id="SVGID_223_" x="-588" y="-344" width="1440" height="1097"/>
			</defs>
			<clipPath id="SVGID_212_">
				<use xlink:href="#SVGID_223_"  overflow="visible"/>
			</clipPath>
		</g>
	</g>
</g>
<g>
	<g>
		<defs>
			<rect id="SVGID_229_" x="-84.784" width="58.835" height="39.195"/>
		</defs>
		<clipPath id="SVGID_214_">
			<use xlink:href="#SVGID_229_"  overflow="visible"/>
		</clipPath>
		<g clip-path="url(#SVGID_214_)">
			<defs>
				<rect id="SVGID_231_" x="-587.784" y="-344" width="1440" height="1097"/>
			</defs>
			<clipPath id="SVGID_216_">
				<use xlink:href="#SVGID_231_"  overflow="visible"/>
			</clipPath>
		</g>
	</g>
	<g>
		<defs>
			<rect id="SVGID_233_" x="-84.784" width="58.835" height="39.195"/>
		</defs>
		<clipPath id="SVGID_218_">
			<use xlink:href="#SVGID_233_"  overflow="visible"/>
		</clipPath>
		<g clip-path="url(#SVGID_218_)">
			<defs>
				<rect id="SVGID_235_" x="-587.784" y="-344" width="1440" height="1097"/>
			</defs>
			<clipPath id="SVGID_220_">
				<use xlink:href="#SVGID_235_"  overflow="visible"/>
			</clipPath>
		</g>
	</g>
	<g>
		<defs>
			<rect id="SVGID_237_" x="-66.583" y="14" width="21.6" height="24"/>
		</defs>
		<clipPath id="SVGID_222_">
			<use xlink:href="#SVGID_237_"  overflow="visible"/>
		</clipPath>
		<g clip-path="url(#SVGID_222_)">
			<defs>
				<rect id="SVGID_239_" x="-587.784" y="-344" width="1440" height="1097"/>
			</defs>
			<clipPath id="SVGID_224_">
				<use xlink:href="#SVGID_239_"  overflow="visible"/>
			</clipPath>
		</g>
	</g>
</g>
<g>
	<g>
		<defs>
			<rect id="SVGID_241_" width="58.835" height="39.195"/>
		</defs>
		<clipPath id="SVGID_226_">
			<use xlink:href="#SVGID_241_"  overflow="visible"/>
		</clipPath>
		<g clip-path="url(#SVGID_226_)">
			<defs>
				<rect id="SVGID_243_" x="-588" y="-344" width="1440" height="1097"/>
			</defs>
			<clipPath id="SVGID_228_">
				<use xlink:href="#SVGID_243_"  overflow="visible"/>
			</clipPath>
			<rect clip-path="url(#SVGID_228_)" fill="#FFFFFF" width="58.835" height="39.195"/>
		</g>
	</g>
	<g>
		<defs>
			<rect id="SVGID_245_" width="58.835" height="39.195"/>
		</defs>
		<clipPath id="SVGID_230_">
			<use xlink:href="#SVGID_245_"  overflow="visible"/>
		</clipPath>
		<g clip-path="url(#SVGID_230_)">
			<defs>
				<rect id="SVGID_247_" x="-588" y="-344" width="1440" height="1097"/>
			</defs>
			<clipPath id="SVGID_232_">
				<use xlink:href="#SVGID_247_"  overflow="visible"/>
			</clipPath>
			
				<rect clip-path="url(#SVGID_232_)" fill="none" stroke="#DDDDDD" stroke-width="2" stroke-miterlimit="10" width="58.835" height="39.195"/>
		</g>
	</g>
	<g>
		<line fill="none" stroke="#E2E2E2" stroke-miterlimit="10" x1="18.333" y1="0.188" x2="18.333" y2="38.073"/>
		<line fill="none" stroke="#E2E2E2" stroke-miterlimit="10" x1="40.333" y1="0.188" x2="40.333" y2="38.073"/>
	</g>
	<g>
		<defs>
			<rect id="SVGID_249_" x="21" y="5" width="6" height="33"/>
		</defs>
		<clipPath id="SVGID_234_">
			<use xlink:href="#SVGID_249_"  overflow="visible"/>
		</clipPath>
		<g clip-path="url(#SVGID_234_)">
			<defs>
				<rect id="SVGID_251_" x="-588" y="-344" width="1440" height="1097"/>
			</defs>
			<clipPath id="SVGID_236_">
				<use xlink:href="#SVGID_251_"  overflow="visible"/>
			</clipPath>
			<rect x="16" clip-path="url(#SVGID_236_)" fill="#61D7D1" width="16" height="43"/>
		</g>
	</g>
	<line fill="none" stroke="#CBCBCB" stroke-miterlimit="10" x1="29" y1="7.549" x2="35" y2="7.549"/>
	<line fill="none" stroke="#CBCBCB" stroke-miterlimit="10" x1="29" y1="10.109" x2="31.606" y2="10.109"/>
	<line fill="none" stroke="#CBCBCB" stroke-miterlimit="10" x1="29" y1="2.427" x2="31.606" y2="2.427"/>
	<line fill="none" stroke="#CBCBCB" stroke-miterlimit="10" x1="29" y1="12.671" x2="31.606" y2="12.671"/>
	<line fill="none" stroke="#CBCBCB" stroke-miterlimit="10" x1="29" y1="4.988" x2="31.606" y2="4.988"/>
	<line fill="none" stroke="#CBCBCB" stroke-miterlimit="10" x1="29" y1="15.231" x2="31.606" y2="15.231"/>
	<line fill="none" stroke="#CBCBCB" stroke-miterlimit="10" x1="29" y1="18.646" x2="35" y2="18.646"/>
	<line fill="none" stroke="#CBCBCB" stroke-miterlimit="10" x1="29" y1="21.207" x2="31.606" y2="21.207"/>
	<line fill="none" stroke="#CBCBCB" stroke-miterlimit="10" x1="29" y1="23.769" x2="31.606" y2="23.769"/>
	<line fill="none" stroke="#CBCBCB" stroke-miterlimit="10" x1="29" y1="26.329" x2="31.606" y2="26.329"/>
	<line fill="none" stroke="#CBCBCB" stroke-miterlimit="10" x1="29" y1="28.891" x2="35" y2="28.891"/>
	<line fill="none" stroke="#CBCBCB" stroke-miterlimit="10" x1="29" y1="34.012" x2="31.606" y2="34.012"/>
	<line fill="none" stroke="#CBCBCB" stroke-miterlimit="10" x1="29" y1="31.451" x2="31.606" y2="31.451"/>
	<line fill="none" stroke="#CBCBCB" stroke-miterlimit="10" x1="29" y1="36.573" x2="31.606" y2="36.573"/>
	<g>
		<defs>
			<path id="SVGID_253_" d="M14,26c0-1.656,1.347-3,3-3h24c1.657,0,3,1.349,3,3v4c0,1.656-1.347,3-3,3H17c-1.657,0-3-1.349-3-3V26z"
				/>
		</defs>
		<clipPath id="SVGID_238_">
			<use xlink:href="#SVGID_253_"  overflow="visible"/>
		</clipPath>
		<g clip-path="url(#SVGID_238_)">
			<defs>
				<rect id="SVGID_255_" x="-588" y="-344" width="1440" height="1097"/>
			</defs>
			<clipPath id="SVGID_240_">
				<use xlink:href="#SVGID_255_"  overflow="visible"/>
			</clipPath>
			<rect x="9" y="18" opacity="0.4449" clip-path="url(#SVGID_240_)" fill="#BCBCBC" width="40" height="20"/>
		</g>
	</g>
	<g>
		<defs>
			<rect id="SVGID_257_" x="19" y="28" width="21" height="1"/>
		</defs>
		<clipPath id="SVGID_242_">
			<use xlink:href="#SVGID_257_"  overflow="visible"/>
		</clipPath>
		<g clip-path="url(#SVGID_242_)">
			<defs>
				<rect id="SVGID_259_" x="-588" y="-344" width="1440" height="1097"/>
			</defs>
			<clipPath id="SVGID_244_">
				<use xlink:href="#SVGID_259_"  overflow="visible"/>
			</clipPath>
			<rect x="14" y="23" clip-path="url(#SVGID_244_)" fill="#04BEB4" width="31" height="11"/>
		</g>
	</g>
</g>
<g>
	<g>
		<defs>
			<rect id="SVGID_261_" x="170.833" width="58.835" height="39.195"/>
		</defs>
		<clipPath id="SVGID_246_">
			<use xlink:href="#SVGID_261_"  overflow="visible"/>
		</clipPath>
		<g clip-path="url(#SVGID_246_)">
			<defs>
				<rect id="SVGID_263_" x="-588.167" y="-344" width="1440" height="1097"/>
			</defs>
			<clipPath id="SVGID_248_">
				<use xlink:href="#SVGID_263_"  overflow="visible"/>
			</clipPath>
		</g>
	</g>
	<g>
		<defs>
			<rect id="SVGID_265_" x="170.833" width="58.835" height="39.195"/>
		</defs>
		<clipPath id="SVGID_250_">
			<use xlink:href="#SVGID_265_"  overflow="visible"/>
		</clipPath>
		<g clip-path="url(#SVGID_250_)">
			<defs>
				<rect id="SVGID_267_" x="-588.167" y="-344" width="1440" height="1097"/>
			</defs>
			<clipPath id="SVGID_252_">
				<use xlink:href="#SVGID_267_"  overflow="visible"/>
			</clipPath>
		</g>
	</g>
	<g>
		<defs>
			<path id="SVGID_269_" d="M194.41,24.536c-0.086,0-0.172-0.076-0.283-0.163c-0.111-0.086-0.199-0.25-0.378-0.259
				c-0.181-0.008-0.181-0.095-0.284-0.104c-0.029-0.002-0.062-0.004-0.094-0.004c-0.08,0-0.16,0.007-0.215,0.013
				c-0.073,0.001-0.033-0.113-0.051-0.146c-0.017-0.034-0.36-0.258-0.36-0.258s-0.129-0.019-0.224-0.036
				c-0.094-0.017-0.137-0.094-0.223-0.301c-0.086-0.208-0.051-0.155-0.061-0.19c-0.008-0.034-0.137-0.5-0.231-0.604
				c-0.04-0.045-0.093-0.057-0.146-0.057c-0.071,0-0.144,0.021-0.188,0.021c-0.077,0-0.342-0.146-0.377-0.164
				c-0.034-0.017-0.386-0.189-0.446-0.292c-0.061-0.104-0.119-0.198-0.154-0.38c-0.034-0.181-0.154-0.111-0.565-0.232
				c-0.109-0.032-0.182-0.044-0.23-0.044c-0.135,0-0.086,0.092-0.131,0.104c-0.092,0.003-0.233-0.062-0.257-0.086
				c-0.026-0.025-0.214-0.172-0.214-0.172c-0.053,0.034-0.104,0.052-0.104,0.052l-0.087,0.405c0,0-0.009,0.08-0.044,0.08
				c-0.109-0.115,0.088-0.676,0.088-0.676c-0.061,0.043-0.129,0.104-0.181,0.121s-0.36,0.13-0.386,0.199
				c-0.025,0.068-0.154,0.171-0.43,0.171c-0.273,0-0.291,0.096-0.352,0.121c-0.117,0.006-0.266-0.048-0.359-0.121
				c-0.111-0.086-0.163-0.56-0.172-0.628c-0.009-0.07-0.163-0.484-0.24-0.621c-0.023-0.043-0.057-0.057-0.094-0.057
				c-0.086,0-0.192,0.078-0.258,0.09c-0.037,0.007-0.076,0.017-0.113,0.017c-0.058,0-0.104-0.023-0.11-0.119
				c-0.009-0.155,0.044-0.337,0.052-0.449c0.009-0.111,0.086-0.259,0.128-0.336c0.044-0.078-0.052-0.241-0.119-0.293
				c-0.114-0.011-0.241,0.106-0.301,0.181c-0.068,0.086-0.043,0.207-0.068,0.276s-0.275,0.163-0.335,0.181
				c-0.02,0.006-0.047,0.008-0.08,0.008c-0.062,0-0.14-0.008-0.203-0.008c-0.094,0-0.188-0.293-0.248-0.361
				c-0.061-0.07-0.121-0.346-0.138-0.396c-0.018-0.052-1.894-0.239-1.868-0.239c0.118-0.026,0.71,0.479,0.701,0.617
				c-0.008,0.138,0.129,0.182,0.172,0.259c0.043,0.078,0.18,0.182,0.309,0.225s0.283,0.155,0.559,0.362
				c0.068,0.052,0.135,0.072,0.198,0.072c0.185,0,0.335-0.174,0.419-0.193c0.12-0.001,0.212,0.252,0.506,0.475
				c0.18,0.136,0.234,0.166,0.281,0.166c0.033,0,0.062-0.017,0.131-0.021c0.164,0,0.191,0.409,0.445,0.673
				c0.258,0.269,0.482,0.354,0.49,0.397c0.145,0.016,0.326-0.022,0.445-0.061c0.035-0.011,0.062-0.016,0.082-0.016
				c0.078,0,0.077,0.072,0.125,0.188c0.06,0.147,0.094,0.38,0.102,0.639c0.01,0.259-0.162,0.38-0.24,0.44
				c-0.076,0.061-0.196,0.345-0.24,0.508c-0.041,0.164-0.076,0.372,0.009,0.458c0.087,0.086-0.05,0.172-0.11,0.354
				c-0.061,0.181,0.061,0.241,0.136,0.388c0.078,0.146,0.31,0.715,0.448,1.069c0.136,0.354,0.299,0.673,0.471,0.845
				c0.172,0.173,0.42,0.406,0.523,0.439c0.104,0.035,0.008,1.621-0.069,1.959c-0.077,0.336-0.137,0.784-0.06,1.017
				c0.077,0.233-0.025,0.414-0.025,0.622c0,0.205-0.274,0.663-0.317,0.845c-0.044,0.18-0.018,0.491,0.06,0.672
				s-0.052,0.518-0.104,0.646c-0.05,0.129-0.12,0.181-0.11,0.26c0.008,0.077,0,0.302,0,0.396c0,0.096,0.086,0.76,0.197,0.88
				c0.11,0.12,0.282,0.225,0.515,0.354c0.093,0.052,0.172,0.067,0.24,0.067c0.102,0,0.177-0.036,0.223-0.041
				c0.077-0.01-0.077-0.233-0.119-0.25c-0.044-0.018-0.182-0.303-0.225-0.458c-0.042-0.154-0.024-0.197,0.043-0.335
				c0.027-0.055,0.047-0.07,0.063-0.07l0.074,0.009c0.052-0.042,0.163-0.215,0.24-0.31c0.077-0.096-0.112-0.259-0.181-0.319
				s0.061-0.276,0.224-0.371s0.077-0.121,0.129-0.259s0.095-0.241,0.043-0.241c-0.051,0-0.077-0.173-0.069-0.268
				c0.006-0.049,0.028-0.063,0.064-0.063c0.032,0,0.076,0.013,0.125,0.021c0.024,0.003,0.051,0.005,0.077,0.005
				c0.085,0,0.164-0.021,0.172-0.066c0.009-0.061,0.009-0.189-0.026-0.311c-0.033-0.12,0.368-0.104,0.473-0.111
				c0.103-0.009,0.188-0.095,0.283-0.189c0.094-0.096,0.119-0.174,0.076-0.286c-0.043-0.111-0.051-0.129-0.119-0.249
				c-0.049-0.085-0.029-0.097-0.013-0.097c0.013,0.002,0.201,0.062,0.278,0.062s0.266-0.13,0.428-0.293
				c0.164-0.164,0.25-0.251,0.396-0.432c0.145-0.182,0.197-0.276,0.256-0.414c0.061-0.138,0.129-0.225,0.113-0.38
				c-0.018-0.154,0.145-0.689,0.309-0.784c0.162-0.096,0.541-0.086,0.635-0.259s0.12-0.319,0.18-0.509
				c0.061-0.189,0.258-0.732,0.232-1.035c-0.025-0.302,0.154-0.501,0.273-0.663c0.12-0.165,0.111-0.156,0.249-0.363
				s0.129-0.268,0.138-0.396c0.008-0.129-0.034-0.423-0.034-0.474c0-0.039-0.044-0.044-0.103-0.044H194.41z"/>
		</defs>
		<clipPath id="SVGID_254_">
			<use xlink:href="#SVGID_269_"  overflow="visible"/>
		</clipPath>
		<g clip-path="url(#SVGID_254_)">
			<defs>
				<rect id="SVGID_271_" x="-588.167" y="-344" width="1440" height="1097"/>
			</defs>
			<clipPath id="SVGID_256_">
				<use xlink:href="#SVGID_271_"  overflow="visible"/>
			</clipPath>
		</g>
	</g>
	<g>
		<defs>
			<path id="SVGID_273_" d="M188.661,20.879c-0.109-0.032-0.182-0.044-0.229-0.044c-0.136,0-0.365,0.041-0.389,0.018
				c-0.025-0.024-0.214-0.172-0.214-0.172c-0.052,0.034-0.104,0.052-0.104,0.052l-0.043-0.189c-0.06,0.043-0.128,0.104-0.18,0.121
				c-0.052,0.017-0.36,0.129-0.386,0.198c-0.025,0.068-1.305-0.389-1.312-0.457c-0.01-0.07-0.164-0.483-0.24-0.621
				c-0.023-0.042-0.057-0.057-0.094-0.057c-0.086,0-0.193,0.078-0.258,0.091c-0.037,0.006-0.076,0.016-0.113,0.016
				c-0.059,0-0.105-0.023-0.111-0.119c-0.008-0.155,0.044-0.337,0.053-0.449c0.008-0.111,0.085-0.259,0.127-0.336
				c0.045-0.077-0.051-0.241-0.119-0.293c-0.113-0.011-0.241,0.106-0.3,0.181c-0.069,0.087-0.044,0.207-0.069,0.276
				s-0.274,0.163-0.334,0.181c-0.021,0.006-0.048,0.008-0.08,0.008c-0.062,0-0.141-0.008-0.203-0.008
				c-0.095,0-0.189-0.293-0.249-0.361c-0.06-0.069-0.12-0.346-0.138-0.396c-0.018-0.052,0-0.433-0.008-0.51
				c-0.01-0.077,0.018-0.302-0.01-0.396c-0.025-0.095,0.225-0.345,0.336-0.423c0.076-0.053,0.186-0.103,0.34-0.103
				c0.068,0,0.146,0.01,0.234,0.034c0.033,0.009,0.065,0.013,0.094,0.013c0.22,0,0.328-0.226,0.396-0.263
				c0.147-0.006,0.486,0.178,0.55,0.232c0.068,0.06,0.248,0.302,0.309,0.465c0.059,0.16,0.262,0.295,0.367,0.295
				c0.113-0.01-0.067-0.526-0.067-0.631c0-0.104-0.12-0.275-0.138-0.302c-0.018-0.025-0.009-0.189,0.197-0.664
				c0.073-0.167,0.135-0.213,0.188-0.213c0.033,0,0.062,0.017,0.09,0.034c0.027,0.017,0.053,0.034,0.079,0.034
				c0.024,0,0.049-0.019,0.073-0.071c0.111-0.241,0.188-0.422,0.12-0.56c-0.069-0.138,0.137-0.294,0.155-0.363
				c0.016-0.068,0.205-0.224,0.488-0.293c0.283-0.068,0.266-0.095,0.446-0.354c0.165-0.236-0.06-0.365,0.002-0.365
				c0.151,0.029,0.221,0.047,0.606,0.047s0.497-0.414,0.497-0.414s-0.094-0.078-0.146-0.129c-0.052-0.053-0.162-0.225-0.274-0.319
				c-0.042-0.036-0.085-0.046-0.13-0.046c-0.027,0-0.056,0.004-0.084,0.008c-0.029,0.004-0.058,0.009-0.086,0.009
				c-0.172-0.031-0.258-0.273-0.087-0.411c0.056-0.044,0.14-0.058,0.24-0.058c0.089,0,0.19,0.012,0.294,0.022
				c0.104,0.012,0.207,0.023,0.303,0.023c0.035,0,0.068-0.002,0.1-0.005c0.301-0.035,0.318-0.164,0.497-0.242
				c0.03-0.013,0.05-0.018,0.063-0.018c0.072,0-0.036,0.146-0.072,0.233c-0.043,0.104-0.086,0.146-0.291,0.448
				c-0.153,0.226-0.093,0.254-0.053,0.254l0.799-0.245c0,0-0.043-0.302-0.095-0.345s0.009-0.345,0.025-0.405
				c0.018-0.061,0.062-0.147,0.044-0.216s-0.121-0.276-0.215-0.379c-0.094-0.104-0.617-0.337-0.67-0.406
				c-0.051-0.068-0.068-0.388-0.137-0.552c-0.068-0.163-0.334-0.207-0.378-0.215c-0.044,0-0.061,0.094-0.265,0.275
				c-0.058,0.051-0.1,0.069-0.133,0.069c-0.09,0-0.105-0.15-0.143-0.207c-0.051-0.078-0.12-0.104-0.317-0.354
				c-0.083-0.105-0.142-0.13-0.21-0.13c-0.029,0-0.061,0.005-0.096,0.01c-0.037,0.004-0.078,0.009-0.125,0.009
				c-0.057,0-0.123-0.006-0.205-0.026c-0.143-0.036-0.195-0.048-0.227-0.048c-0.053,0-0.048,0.03-0.287,0.03
				c-0.387,0-0.052,0.207-0.13,0.327c-0.076,0.121,0.044,0.242,0.112,0.328s0.034,0.086,0.146,0.379
				c0.111,0.294-0.043,0.147-0.155,0.371c-0.076,0.153-0.128,0.178-0.153,0.178c-0.018-0.005,0.008,0.063,0.05,0.34
				c0.044,0.276,0,0.095-0.042,0.25c-0.025,0.094-0.045,0.103-0.09,0.103c-0.063-0.001-0.094,0.001-0.133,0.01
				c-0.037,0.008-0.059,0.011-0.072,0.011c-0.044,0,0.004-0.036-0.049-0.063c-0.068-0.034-0.24-0.354-0.377-0.56
				c-0.137-0.207-0.111-0.173-0.248-0.251c-0.138-0.077-0.198-0.068-0.439-0.163c-0.239-0.095-0.205-0.018-0.479-0.086
				c-0.274-0.069-0.206-0.173-0.274-0.26c-0.068-0.086-0.18-0.275-0.232-0.353c-0.051-0.078-0.076-0.285-0.076-0.285
				s0.094-0.077,0.231-0.138s0.283-0.215,0.378-0.38c0.035-0.061,0.055-0.08,0.08-0.08c0.043,0,0.098,0.055,0.254,0.055
				c0.25,0,0.36-0.432,0.36-0.432s0.343-0.129,0.378-0.129c0.034,0,0.258-0.052,0.343-0.112c0.086-0.061-0.06-0.207-0.112-0.303
				c-0.051-0.094,0.146-0.197,0.198-0.206s0.24-0.19,0.3-0.216c0.067-0.004,0.097,0.099,0.113,0.13c0.016,0.034,0,0,0.625,0.19
				c0.627,0.189,0.214,0.154,0.309,0.189c0.095,0.034-0.086,0.189-0.137,0.267c-0.051,0.078-0.266,0.276-0.472,0.302
				c-0.206,0.026-0.138,0.164-0.138,0.164h0.412c0.068,0,0.137,0.095,0.369,0.181c0.23,0.086,0.24,0.096,0.352,0.199
				c0.044,0.041,0.127,0.053,0.211,0.053c0.126,0,0.252-0.027,0.252-0.027s-0.154-0.077-0.24-0.155
				c-0.055-0.05-0.018-0.07,0.043-0.07c0.033,0,0.074,0.007,0.111,0.019c0.018,0.006,0.038,0.008,0.061,0.008
				c0.111,0,0.266-0.06,0.266-0.06s-0.06-0.172-0.146-0.215c-0.086-0.044-0.267-0.199-0.3-0.345
				c-0.015-0.06,0.008-0.082,0.043-0.082c0.053,0,0.135,0.051,0.171,0.107c0.06,0.093,0.355,0.275,0.417,0.275
				c0.055-0.008,0.157-0.181,0.219-0.232c0.059-0.052,0.299-0.112,0.016-0.181c-0.283-0.069-0.334-0.165-0.565-0.225
				c-0.231-0.061-0.274-0.104-0.36-0.232c-0.086-0.13-0.163-0.198-0.163-0.198s-0.155-0.087-0.231-0.139
				c-0.078-0.052-0.275-0.241-0.645-0.25s-0.136,0-0.514-0.052c-0.377-0.052-0.188-0.112-0.257-0.19
				c-0.023-0.025-0.056-0.034-0.093-0.034c-0.072,0-0.163,0.034-0.226,0.034c-0.094,0-0.077,0.026-0.292,0.121
				c-0.076,0.034-0.116,0.045-0.137,0.045c-0.01-0.036-0.068-0.183-0.231-0.183s-0.3,0.121-0.343,0.155s0.076,0.396,0.171,0.456
				c0.095,0.062,0.24,0.121,0.257,0.226c0.017,0.095-0.062,0.183-0.229,0.183c-0.242-0.02-0.303-0.054-0.38-0.105
				s-0.103-0.129-0.188-0.276c-0.086-0.146-0.104-0.241-0.309-0.293c-0.043-0.011-0.08-0.015-0.112-0.015
				c-0.129,0-0.192,0.069-0.206,0.118c-0.017,0.061,0.154,0.354,0.154,0.354c-0.021,0.001-0.057-0.01-0.117-0.021
				c-0.062-0.011-0.15-0.022-0.275-0.022l-0.062,0.001c-0.317,0.009,0.017,0.095,0.009,0.249c-0.004,0.071-0.038,0.087-0.084,0.087
				l-0.062-0.005c-0.021-0.003-0.045-0.006-0.068-0.006c-0.022,0-0.047,0.003-0.068,0.012c-0.031,0.011-0.08,0.015-0.141,0.015
				c-0.169,0-0.421-0.034-0.555-0.042c-0.194,0-0.258,0.033-0.334,0.087c-0.027,0.019-0.068,0.028-0.133,0.028
				c-0.145,0-0.404-0.048-0.871-0.148c-0.296-0.064-0.387-0.082-0.393-0.082l0.117,0.029c0,0-0.609-0.111-0.823-0.224
				c-0.09-0.047-0.14-0.061-0.166-0.061c-0.032,0.026-0.117,0.069-0.323,0.129c-0.072,0.021-0.119,0.029-0.156,0.029
				c-0.068,0-0.098-0.026-0.17-0.038c-0.111-0.017-0.053-0.149-0.305-0.157c-0.26,0-0.346,0.06-0.559,0.071
				c-0.227,0.014-0.553,0.13-0.644,0.149c-0.157,0.002-0.538-0.098-0.721-0.175c-0.2-0.085-1.043-0.085-1.088-0.123
				c-0.046-0.039-0.875-0.032-1.203-0.039c-0.328-0.006-0.193-0.02-0.231-0.02c-0.039,0-0.38,0.026-0.419,0.053
				c-0.038,0.025-0.231,0.116-0.366,0.193s-0.599,0.194-0.599,0.194s0.071,0.013,0.161,0.02s0.103,0.052,0.244,0.226
				c0.143,0.175,0.231,0.201,0.213,0.214c-0.02,0.013-0.181,0.013-0.309,0.013c-0.129,0-0.143,0.014-0.329,0.02
				c-0.187,0.007-0.161,0.11-0.173,0.175c-0.014,0.064,0.057,0.091,0.187,0.161c0.03,0.018,0.059,0.024,0.086,0.024
				c0.09,0,0.171-0.071,0.274-0.102c0.033-0.01,0.057-0.013,0.08-0.013c0.069,0,0.12,0.034,0.338,0.038
				c0.289,0.007,0.025,0.137-0.007,0.259c-0.032,0.123-0.237,0.053-0.438,0.117c-0.199,0.063-0.226,0.116-0.36,0.2
				s0.206,0.265,0.398,0.316c0.194,0.053,0.432,0.214,0.734,0.214s0.193,0.085,0.18,0.175c-0.013,0.09-0.096,0.149-0.18,0.271
				c-0.084,0.123-0.335,0.155-0.431,0.194c-0.097,0.038-0.251,0.168-0.31,0.207c-0.058,0.038-0.354,0.136-0.508,0.174
				c-0.154,0.04-0.245,0.13-0.297,0.182c0.025,0.025,0.092-0.001,0.143-0.025c0.076-0.04,0.347-0.078,0.643-0.253
				s0.656-0.323,0.979-0.446c0.321-0.123,0.283-0.155,0.482-0.298c0.199-0.142,0.09-0.188,0.123-0.311
				c0.031-0.122,0.038-0.07,0.135-0.187c0.031-0.037,0.064-0.052,0.096-0.052c0.069,0,0.131,0.065,0.135,0.11
				c0.008,0.064-0.205,0.199-0.205,0.219c0.102,0.011,0.208-0.011,0.283-0.077c0.053-0.047,0.145-0.059,0.252-0.059
				c0.114,0,0.246,0.013,0.365,0.013c0.232,0,0.547,0.104,0.721,0.13c0.174,0.025,0.463,0.271,0.547,0.285
				c0.084,0.012,0.148,0.051,0.348,0.142s0.143,0.143,0.244,0.284c0.104,0.143,0.059,0.143,0.162,0.421
				c0.102,0.278,0.148,0.298,0.257,0.343c0.067,0.015-0.003-0.044-0.013-0.11c-0.014-0.084-0.02-0.168-0.059-0.316
				c-0.037-0.149-0.063-0.24-0.006-0.298c0.057-0.016,0.072,0.098,0.251,0.362c0.218,0.323,0.116,0.116,0.206,0.271
				s0.123,0.22,0.077,0.33s0.136,0.149,0.199,0.221c0.065,0.07,0.135,0.193,0.193,0.342c0.058,0.149,0.069,0.181,0.161,0.337
				c0.09,0.155,0.102,0.446,0.102,0.653c0,0.206-0.096,0.342-0.09,0.484c0.008,0.143,0.09,0.182,0.258,0.621
				c0.168,0.44,0.136,0.239,0.367,0.55c0.131,0.177,0.172,0.203,0.199,0.203l0.077,0.011c0.097,0.058,0.064,0.077,0.2,0.291
				c0.135,0.213,0.09,0.129,0.191,0.388c0.104,0.259,0.207,0.453,0.227,0.518c0.019,0.064,0.135,0.188,0.237,0.298
				c0.104,0.109,0.097,0.148,0.128,0.323c0.033,0.175,0,0.129,0.188,0.271c0.111,0.085,0.146,0.104,0.172,0.104
				c0.117-0.026,0.034-0.111-0.005-0.195c-0.038-0.084-0.147-0.207-0.147-0.265c0-0.059-0.039-0.155-0.116-0.227
				s-0.083-0.123-0.091-0.214c-0.006-0.091-0.172-0.277-0.225-0.336c-0.051-0.058-0.166-0.246-0.192-0.343
				c-0.019-0.069,0.042-0.079,0.085-0.079c0.057,0.002,0.23,0.234,0.23,0.267s0.148,0.181,0.238,0.323
				c0.089,0.143,0.019,0.149,0.205,0.316c0.101,0.091,0.105,0.101,0.103,0.101c0.109,0.088,0.104,0.152,0.148,0.236
				s0.047,0.205,0.245,0.352c0.197,0.146,0.23,0.543,0.223,0.681c-0.008,0.139,0.129,0.182,0.172,0.259
				c0.043,0.078,0.18,0.182,0.309,0.226c0.129,0.042,0.283,0.154,0.558,0.361c0.069,0.052,0.136,0.072,0.198,0.072
				c0.186,0,0.336-0.174,0.42-0.193c0.119-0.001,0.211,0.253,0.506,0.475c0.18,0.136,0.234,0.166,0.281,0.166
				c0.033,0,0.062-0.017,0.13-0.02C185.248,20.24,189.072,21,188.661,20.879z"/>
		</defs>
		<clipPath id="SVGID_258_">
			<use xlink:href="#SVGID_273_"  overflow="visible"/>
		</clipPath>
		<g clip-path="url(#SVGID_258_)">
			<defs>
				<rect id="SVGID_275_" x="-588.167" y="-344" width="1440" height="1097"/>
			</defs>
			<clipPath id="SVGID_260_">
				<use xlink:href="#SVGID_275_"  overflow="visible"/>
			</clipPath>
		</g>
	</g>
	<g>
		<defs>
			<path id="SVGID_277_" d="M194.506,8.483c0,0-0.052-0.185,0.153-0.185l0.053,0.004c0.151,0.02,0.279,0.059,0.343,0.059
				c0.048,0,0.057-0.022,0.009-0.093c-0.111-0.165-0.188-0.242-0.197-0.293c-0.008-0.052,0.309-0.232,0.395-0.346
				c0.086-0.112,0.163-0.431,0.146-0.586c-0.018-0.155-0.129-0.302,0.137-0.362s0.566-0.061,0.755-0.13
				c0.189-0.068,0.249-0.086,0.231-0.138s-0.412-0.077-0.67-0.077c-0.152,0-0.262,0.023-0.38,0.023c-0.081,0-0.167-0.011-0.271-0.05
				c-0.258-0.095-0.609-0.188-0.885-0.206c-0.188-0.013-0.344-0.036-0.587-0.036c-0.111,0-0.241,0.005-0.399,0.019
				c-0.506,0.043-1.217,0.111-1.476,0.129c-0.257,0.018-0.215,0.009-0.935,0.061c-0.188,0.014-0.375,0.019-0.551,0.019
				c-0.197,0-0.379-0.006-0.531-0.012s-0.273-0.013-0.35-0.013c-0.039,0-0.066,0.002-0.078,0.006
				c-0.086,0.025-0.249,0.121-0.189,0.215l-0.025,0.044c0,0-0.644,0.068-0.729,0.078c-0.086,0.008-0.146,0.043-0.077,0.068
				c0.068,0.025,0.258,0.078,0.258,0.146c0,0.069-0.018,0.155-0.121,0.198c-0.047,0.02-0.187,0.025-0.326,0.025
				c-0.168,0-0.334-0.008-0.334-0.008l-0.104,0.104c0,0,0.314,0.087,0.455,0.087l0.018-0.001l0.033-0.001
				c0.088,0,0.051,0.036,0.044,0.122c-0.006,0.067,0.236,0.082,0.392,0.082c0.062,0,0.11-0.002,0.123-0.005l0.007-0.001
				c0.069,0,0.461,0.097,0.56,0.113l0.033,0.002l0.039-0.002l0.043-0.001c0.066,0,0.139,0.022,0.236,0.174
				c0.154,0.241,0.197,0.482,0.378,0.543c0.18,0.061,0.181,0.043,0.266,0.061c0.087,0.017-0.378-0.025-0.205,0.12
				c0.077,0.067,0.146,0.08,0.209,0.08l0.057-0.003l0.056-0.001c0.032,0,0.065,0.003,0.098,0.02c0.13,0.06,0.189,0.198,0.164,0.327
				c-0.026,0.129-0.258,0.293-0.344,0.396s-0.215,0.164-0.197,0.25c0.017,0.087,0.283,0.259,0.412,0.389
				c0.129,0.129,0.283,0.328,0.359,0.405c0.078,0.077,0.086,0.018,0.379,0.155c0.246,0.117,0.363,0.159,0.456,0.159l0.05-0.004
				c0.103-0.018,0.344-0.26,0.369-0.363s0.076-0.353,0.18-0.431c0.104-0.077,0.067-0.267,0.472-0.293
				c0.403-0.025,0.755-0.181,0.875-0.259s0.034-0.129,0.497-0.208c0.463-0.077,0.713-0.094,0.652-0.224
				C194.875,8.708,194.506,8.483,194.506,8.483z"/>
		</defs>
		<clipPath id="SVGID_262_">
			<use xlink:href="#SVGID_277_"  overflow="visible"/>
		</clipPath>
		<g clip-path="url(#SVGID_262_)">
			<defs>
				<rect id="SVGID_279_" x="-588.167" y="-344" width="1440" height="1097"/>
			</defs>
			<clipPath id="SVGID_264_">
				<use xlink:href="#SVGID_279_"  overflow="visible"/>
			</clipPath>
		</g>
	</g>
	<g>
		<defs>
			<path id="SVGID_281_" d="M226.021,9.168c-0.385-0.167-0.796-0.274-1.036-0.274c-0.14,0.016-0.183,0.018-0.218,0.018l-0.103-0.003
				c-0.048,0-0.091,0.008-0.153,0.053c-0.093,0.063,0.04,0.151-0.023,0.151c-0.029,0-0.106-0.021-0.277-0.073
				c-0.421-0.133-0.421-0.214-0.569-0.214c-0.036,0-0.081,0.005-0.144,0.015c-0.175,0.028-0.378,0.084-0.555,0.084
				c-0.143,0-0.27-0.037-0.346-0.152c-0.105-0.159-0.17-0.198-0.26-0.198c-0.057,0-0.124,0.016-0.221,0.024
				c-0.109,0.013-0.25,0.022-0.392,0.022c-0.181,0-0.362-0.017-0.482-0.064c-0.216-0.087-0.198-0.173-0.507-0.198
				c-0.035-0.003-0.066-0.005-0.096-0.005c-0.223,0-0.281,0.084-0.676,0.16c-0.307,0.06-0.303,0.126-0.42,0.126
				c-0.052,0-0.131-0.014-0.275-0.049c-0.322-0.077-0.227-0.155-0.295-0.155c-0.031,0-0.093,0.015-0.237,0.053
				c-0.339,0.086-0.417,0.279-0.5,0.279c-0.032,0-0.067-0.029-0.118-0.107c-0.18-0.276,0.301-0.198-0.215-0.336
				c-0.387-0.104-0.307-0.154-0.376-0.154c-0.024,0-0.062,0.006-0.139,0.016c-0.239,0.033-0.205,0.047-0.346,0.047
				c-0.041,0-0.097-0.002-0.177-0.004c-0.213-0.005-0.286-0.019-0.42-0.019c-0.095,0-0.218,0.006-0.438,0.027
				c-0.541,0.053-1.014,0.096-1.074,0.096c-0.037,0-0.239,0.021-0.355,0.021c0.049-0.09,0.158-0.22,0.391-0.245
				c0.232-0.026,0.369-0.061,0.558-0.225s1.142-0.225,0.335-0.311c-0.503-0.054-0.726-0.063-0.83-0.063
				c-0.064,0-0.084,0.003-0.098,0.003c-0.023,0-0.184,0.022-0.292,0.022c-0.043,0-0.078-0.004-0.093-0.014
				c-0.039-0.026,0.014-0.11-0.077-0.11c-0.03,0-0.076,0.01-0.146,0.033c-0.283,0.095-0.482,0.172-0.585,0.189
				s-0.78,0.018-0.874,0.025l-0.104,0.001c-0.181,0-0.327,0.008-0.463,0.06c-0.223,0.087-0.403,0.112-0.497,0.155
				c-0.094,0.044-0.121,0.078-0.429,0.146c-0.205,0.047-0.351,0.055-0.425,0.055c-0.057-0.002-0.185,0.066,0.014,0.222
				c0.196,0.155,0.438,0.129,0.42,0.311s-0.018,0.284-0.018,0.284c-0.105,0.011-0.176-0.005-0.258-0.077
				c-0.145-0.129-0.051-0.189-0.215-0.275c-0.133-0.071-0.14-0.119-0.2-0.119c-0.16,0.032-0.081,0.024-0.33,0.067
				c-0.142,0.005-0.204-0.016-0.261-0.036c-0.055-0.021-0.104-0.042-0.146-0.042c-0.035,0-0.068,0.014-0.1,0.052
				c-0.12,0.146-0.061,0.405-0.025,0.439c0.034,0.035,0.162,0.13,0.273,0.13s0.455,0.095,0.429,0.181
				c-0.019,0.063,0.005,0.188-0.053,0.188c-0.021,0-0.053-0.018-0.101-0.058c-0.181-0.155-0.224-0.189-0.292-0.189
				s-0.086,0.042-0.204,0.155c-0.122,0.111-0.311,0.206-0.336,0.215c-0.015,0.005-0.118,0.023-0.185,0.023
				c-0.053,0-0.083-0.012-0.03-0.049c0.121-0.087,0.412-0.389,0.36-0.518c-0.052-0.13-0.077-0.207-0.069-0.414
				c0.01-0.207,0.326-0.232,0.026-0.285c-0.142-0.024-0.247-0.051-0.332-0.051c-0.094,0-0.162,0.033-0.226,0.138
				c-0.12,0.198-0.377,0.155-0.24,0.396c0.139,0.241,0.24,0.285,0.205,0.327c-0.015,0.02-0.085,0.032-0.167,0.032
				c-0.103,0-0.222-0.019-0.278-0.066c-0.087-0.073-0.249-0.184-0.401-0.184c-0.099,0.017-0.122,0.02-0.148,0.02
				c-0.199,0-0.548-0.154-0.548-0.154s0.334,0.154,0.171,0.292c-0.12,0.103-0.279,0.205-0.522,0.205
				c-0.083,0-0.178-0.012-0.283-0.041c-0.098-0.026-0.183-0.037-0.259-0.037c-0.24,0-0.378,0.11-0.497,0.15
				c-0.154,0.052-0.66,0.111-0.678,0.146c-0.042,0.006-0.129-0.108,0-0.216c0.094-0.076,0.067-0.159,0.008-0.159
				c-0.032,0-0.078,0.026-0.119,0.1c-0.111,0.198-0.043,0.302-0.051,0.371c-0.009,0.068-0.43,0.06-0.48,0.172
				c-0.049,0.106-0.014,0.373-0.132,0.373c-0.169-0.037-0.658-0.191-0.684-0.191c-0.015,0-0.032,0.065-0.082,0.065
				c-0.038,0-0.093-0.036-0.175-0.161c-0.198-0.293-0.344-0.268-0.172-0.327c0.105-0.015,0.117,0.008,0.148,0.031
				c0.033,0.023,0.086,0.046,0.203,0.046c0.344-0.009,0.857-0.061,0.885-0.086c0.024-0.026,0.153-0.026,0.076-0.138
				c-0.076-0.112-0.506-0.32-1.013-0.433c-0.124-0.026-0.207-0.036-0.269-0.036c-0.064,0-0.106,0.01-0.151,0.02
				c-0.042,0.01-0.089,0.021-0.161,0.021c-0.068,0-0.162-0.01-0.303-0.038c-0.361-0.071-0.559-0.146-0.732-0.146
				c-0.098,0-0.188,0.024-0.297,0.087c-0.301,0.173-0.188,0.146-0.463,0.224c-0.064,0.018-0.129,0.022-0.191,0.022
				c-0.04,0-0.081-0.001-0.119-0.004c-0.039-0.002-0.076-0.003-0.112-0.003c-0.118,0-0.22,0.021-0.29,0.132
				c0,0-0.06,0.37-0.119,0.448c-0.061,0.077-0.18,0.215-0.395,0.327s-0.49,0.216-0.609,0.293s-0.412,0.018-0.311,0.232
				c0.104,0.216,0.164,0.139,0.174,0.285c0.009,0.146,0.068,0.388,0.119,0.423c0.125,0.02,0.193,0.01,0.318,0
				c0.169-0.014,0.221-0.223,0.26-0.223c0.012,0,0.02,0.015,0.031,0.05c0.053,0.173,0.154,0.319,0.206,0.397
				c0.052,0.076,0,0.206-0.06,0.232c-0.074,0.003-0.141-0.103-0.172-0.173c-0.018-0.04-0.071-0.059-0.135-0.059
				c-0.059,0-0.123,0.017-0.175,0.05c-0.103,0.069-0.117,0.386-0.104,0.483s-0.02,0.271-0.143,0.323
				c-0.122,0.052-0.199,0.194-0.327,0.202c-0.129,0.009-0.257,0.078-0.353,0.208c-0.094,0.129,0.018,0.224-0.342,0.327
				c-0.36,0.104-0.267,0.172-0.516,0.189c-0.248,0.018-0.223,0.189-0.129,0.232c0.096,0.044,0.403,0.131,0.446,0.294
				c0.043,0.164,0.146,0.293-0.06,0.396c-0.154,0.077-0.169,0.146-0.268,0.146c-0.033,0-0.075-0.008-0.136-0.024
				c-0.24-0.069-0.55-0.121-0.55-0.121s-0.115,0.246-0.051,0.4c0.064,0.156,0.094,0.41,0.025,0.497
				c-0.068,0.086-0.172,0.095-0.094,0.267c0.077,0.173,0.214,0.319,0.274,0.328c0.06,0.009,0.249,0.104,0.206,0.198
				s-0.069,0.155-0.241,0.371c-0.171,0.215,6.554,2.646,6.548,2.475c-0.01-0.173-0.318-1.061-0.336-1.138
				c-0.017-0.078,0.018-0.225,0.059-0.225c0.044,0,0.26,0.146,0.354,0.302s0.094,0.311,0.18,0.518s0.207,0.06,0.25,0.37
				c0.042,0.311,0.308,0.673,0.385,0.88c0.078,0.207,0.172,0.432,0.188,0.604c0.018,0.172,1.142,0.042,1.245-0.053
				c0.102-0.095,0.042-0.216,0.368-0.284s0.454-0.25,0.481-0.362c0.025-0.112,0.008-0.215,0.205-0.354
				c0.197-0.138,0.137-0.285,0.104-0.38c-0.035-0.095-0.112-0.267-0.292-0.362c-0.181-0.094-0.344-0.25-0.37-0.31
				c-0.031-0.01-0.058,0.191-0.119,0.216c-0.051,0.018-0.026,0.271-0.148,0.271c-0.044,0-0.105-0.031-0.195-0.117
				c-0.343-0.327-0.438-0.689-0.473-0.801c-0.033-0.113-0.196-0.389-0.145-0.492c0.033-0.068,0.111-0.124,0.178-0.124
				c0.035,0,0.066,0.016,0.087,0.055c0.061,0.112-0.059,0.078,0.216,0.311c0.275,0.232,0.343,0.354,0.523,0.38
				c0.036,0.005,0.075,0.007,0.115,0.007c0.165,0,0.346-0.033,0.374-0.033c0.052-0.001,0.124,0.013,0.463,0.164
				c0.403,0.181,0.326,0.216,0.661,0.241c0.334,0.026,0.283,0,0.386,0.207c0.089,0.179,0.21,0.274,0.275,0.274
				c0.113-0.022,0.146,0.009,0.103,0.07c-0.061,0.086-0.061,0.276,0.016,0.302c0.125,0.012,0.186-0.012,0.258-0.06
				c0.131-0.015,0.209,0.148,0.223,0.215c0.018,0.078,0.078,0.846,0.174,1.113c0.093,0.267,0.221,0.561,0.272,0.646
				s0.052,0.345,0.052,0.465c0,0.122,0.086,0.242,0.086,0.242s0.215-0.146,0.249-0.225s0.034-0.12,0.138-0.432
				c0.103-0.31,0.111-0.551,0.111-0.663s-0.215-0.104,0-0.225s0.154-0.095,0.283-0.241s0.119-0.086,0.291-0.249
				c0.172-0.165,0.061-0.191,0.258-0.311c0.196-0.122,0.188-0.078,0.377-0.294s0.111-0.232,0.232-0.294
				c0.073-0.037,0.061-0.09,0.08-0.09c0.014,0,0.038,0.021,0.108,0.082c0.181,0.154,0.215,0.12,0.231,0.275
				c0.018,0.155-0.076,0.096,0.052,0.242s0.215,0.267,0.24,0.396c0.024,0.131,0.024,0.362,0.024,0.397
				c0.143,0.017,0.278-0.012,0.302-0.077c0.088-0.02,0.235,0.192,0.257,0.311c0.026,0.138,0.052,0.111,0.043,0.353
				c-0.008,0.242-0.027,0.664-0.017,0.699c0.009,0.034,0.009,0.345,0.06,0.423c0.051,0.077,0.111,0.06,0.128,0.258
				c0.019,0.198,0.103,0.328,0.146,0.423c0.042,0.095,0.214,0.345,0.343,0.396s0.311,0.13,0.311,0.13s-0.284-0.396-0.326-0.612
				c-0.044-0.216-0.018-0.259-0.121-0.396c-0.104-0.139-0.164-0.069-0.3-0.242c-0.138-0.172-0.257-0.293-0.146-0.439
				c0.112-0.146,0.24-0.19,0.189-0.439c-0.048-0.229-0.052-0.277,0.008-0.277c0.094,0.01,0.232,0.14,0.386,0.251
				c0.155,0.112,0.225,0.371,0.24,0.482c0.016,0.1-0.016,0.298,0.093,0.298c0.226-0.082,0.414-0.271,0.431-0.443
				c0.018-0.173,0.121-0.052,0.068-0.405c-0.051-0.354-0.068-0.475-0.171-0.622c-0.103-0.146-0.351-0.473-0.335-0.663
				c0.018-0.19,0.111-0.371,0.309-0.44c0.168-0.059,0.078-0.128,0.256-0.128c0.033,0,0.075,0.002,0.131,0.007
				c0.4,0.002,1.178-0.535,1.243-0.577c0.069-0.043,0.062-0.043,0.206-0.293c0.147-0.25,0.275-0.198,0.283-0.509
				c0.01-0.311,0.01-0.319,0-0.423c-0.008-0.104,0.07-0.052-0.076-0.38c-0.146-0.327-0.258-0.533-0.146-0.646
				c0.112-0.113,0.422-0.303,0.283-0.338c-0.091-0.022-0.146-0.03-0.19-0.03c-0.153,0.008-0.294-0.022-0.315-0.15
				c-0.025-0.146-0.068-0.138,0.06-0.224c0.13-0.087,0.077-0.052,0.267-0.19c0.166-0.12,0.145-0.176,0.186-0.176
				c0.089,0.021,0.123,0.236,0.046,0.34c-0.069,0.093-0.05,0.186,0.005,0.186c0.089-0.029,0.312-0.168,0.312-0.168
				s0.112,0.061,0.146,0.155c0.033,0.095,0.145,0.207,0.197,0.414c0.051,0.207,0.103,0.129,0.051,0.336
				c-0.016,0.061-0.009,0.083,0.008,0.083c0.039,0,0.143-0.125,0.172-0.144c0.19-0.004,0.332-0.027,0.231-0.318
				c-0.137-0.405-0.188-0.311-0.188-0.483c0-0.172-0.188-0.164,0.026-0.301c0.214-0.139,0.669-0.484,0.737-0.492
				c0.068-0.01,0.378-0.01,0.541-0.346s0.197-0.465,0.266-0.595s0.12-0.121,0.163-0.388c0.043-0.268-0.009-0.207,0.077-0.362
				s0.137-0.233,0.018-0.389c-0.105-0.136-0.065-0.192-0.137-0.192c-0.115,0.015-0.246,0.127-0.346,0.127
				c-0.047,0-0.087-0.027-0.109-0.107c-0.069-0.241,0.017-0.034,0.171-0.292c0.154-0.259,0.369-0.396,0.628-0.544
				c0.256-0.146,0.299-0.139,0.487-0.155c0.189-0.018,0.764-0.009,0.901-0.052c0.072-0.023,0.198-0.043,0.275-0.043
				c0.067,0,0.098,0.016,0.016,0.061c-0.121,0.067,0.018,0.148,0.117,0.148c0.039,0,0.073-0.013,0.08-0.045
				c0.025-0.112-0.172-0.328,0.043-0.354c0.215-0.026,0.198-0.104,0.412-0.155c0.178-0.043,0.398-0.134,0.516-0.134
				c0.139,0.061,0.08,0.232,0.137,0.232c0.103-0.038,0.275-0.271,0.335-0.28c0.083-0.002,0.142,0.022,0.077,0.104
				c-0.077,0.096-0.112,0.087-0.258,0.276c-0.146,0.189-0.189,0.25-0.352,0.302c-0.163,0.052-0.154,0.017-0.291,0.129
				c-0.139,0.113-0.404,0.009-0.327,0.389c0.077,0.379,0.043,0.475,0.043,0.673s-0.017,0.379,0.017,0.448
				c0.014,0.025,0.061,0.038,0.119,0.038c0.096,0,0.223-0.034,0.276-0.099c0.085-0.104,0.069-0.285,0.163-0.492
				c0.094-0.206,0.051-0.224,0.111-0.275s0.086-0.068,0.18-0.146c0.096-0.078,0.163-0.189,0.146-0.328
				c-0.018-0.139-0.139-0.181-0.051-0.267c0.086-0.087-0.096-0.13,0.153-0.173c0.25-0.043,0.387-0.068,0.411-0.077
				c0.026-0.009-0.111-0.198,0.395-0.198c0.508,0,0.594-0.121,0.73-0.233c0.137-0.111,0.119-0.155,0.394-0.155
				c0.159,0,0.27,0.038,0.327,0.038c0.042,0,0.058-0.021,0.042-0.09c-0.034-0.164-0.146-0.293-0.205-0.354s0.188-0.086,0.282-0.112
				c0.095-0.025,0.095-0.086,0.197-0.121c0.05-0.016,0.122-0.043,0.217-0.043c0.102,0,0.229,0.031,0.385,0.139
				c0.158,0.109,0.285,0.151,0.381,0.151c0.085,0,0.144-0.033,0.177-0.083c0.068-0.104,0.129-0.189,0.129-0.232
				s-0.274-0.12-0.369-0.138S226.458,9.358,226.021,9.168z"/>
		</defs>
		<clipPath id="SVGID_266_">
			<use xlink:href="#SVGID_281_"  overflow="visible"/>
		</clipPath>
		<g clip-path="url(#SVGID_266_)">
			<defs>
				<rect id="SVGID_283_" x="-588.167" y="-344" width="1440" height="1097"/>
			</defs>
			<clipPath id="SVGID_268_">
				<use xlink:href="#SVGID_283_"  overflow="visible"/>
			</clipPath>
		</g>
	</g>
	<g>
		<defs>
			<path id="SVGID_285_" d="M197.787,16.58c-0.043,0.096-0.069,0.156-0.241,0.372c-0.171,0.215-0.343,0.318-0.394,0.431
				c-0.053,0.112,0.042,0.466,0.017,0.518c-0.026,0.052-0.205,0.068-0.334,0.172c-0.13,0.104-0.387,0.479-0.412,0.582
				c-0.025,0.104-0.154,0.376-0.181,0.479c-0.025,0.104-0.18,0.607-0.129,0.685c0.053,0.078,0.039,0.143,0.026,0.337
				c-0.013,0.193,0,0.807,0.026,0.876c0.025,0.068,0.034,0.292,0.059,0.413c0.026,0.121,0.146,0.354,0.216,0.405
				c0.067,0.053,0.377,0.432,0.532,0.655c0.154,0.225,0.111,0.38,0.394,0.38c0.044,0,0.083,0,0.117,0
				c0.188,0,0.257-0.007,0.424-0.086c0.12-0.059,0.148-0.088,0.187-0.088c0.024,0,0.055,0.013,0.113,0.036
				c0.101,0.039,0.146,0.104,0.221,0.104c0.04,0,0.088-0.019,0.157-0.07c0.196-0.147,0.154-0.138,0.309-0.232
				c0.104-0.064,0.138-0.175,0.196-0.175c0.028,0,0.062,0.026,0.112,0.097c0.154,0.216,0.197,0.224,0.241,0.302
				c0.033,0.063-0.049,0.155,0.031,0.155c0.02,0,0.047-0.005,0.088-0.018c0.156-0.043,0.203-0.092,0.246-0.092l0.055,0.022
				c0.076,0.061,0.291,0.346,0.231,0.562s-0.112,0.224-0.085,0.439c0.025,0.216-0.027,0.259,0.076,0.475s0.644,1.337,0.67,1.466
				c0,0,0.023,0.328-0.121,0.501c-0.146,0.172-0.188,0.982-0.18,1.095s0.291,0.629,0.316,0.914c0.026,0.284,0.044,0.457,0.026,0.801
				c-0.019,0.346,0.086,0.251,0.197,0.415c0.112,0.163,0.48,0.492,0.421,0.776c-0.061,0.284-0.241,0.311-0.096,0.388
				c0.096,0.052,0.379,0.13,0.646,0.13c0.144,0,0.282-0.023,0.386-0.086c0.291-0.183,0.607-0.225,0.711-0.303
				c0.104-0.077,0.18-0.241,0.188-0.509c0.01-0.268,0.096-0.431,0.173-0.525s0.173-0.346,0.239-0.389
				c0.07-0.043,0.353-0.293,0.353-0.587c0-0.293-0.146-0.525,0.062-0.749c0.205-0.225,0.643-0.328,0.643-0.854
				s0.129-0.569,0.018-1.034c-0.111-0.467,0.061-1.484,0.146-1.596c0.085-0.112,0.884-1.242,1.013-1.466
				c0.129-0.225,0.473-0.674,0.445-0.794c-0.025-0.12-0.086-0.44-0.086-0.44c-0.016,0-0.064,0.005-0.266,0.044
				c-0.192,0.037-0.304,0.143-0.436,0.143c-0.05,0-0.104-0.016-0.164-0.056c-0.225-0.147-0.309,0.085-0.447-0.381
				c-0.137-0.466-0.068-0.275-0.3-0.689s-0.542-0.932-0.548-1.104c-0.01-0.173-0.318-1.061-0.336-1.138
				c-0.017-0.078,0.018-0.225,0.059-0.225c0.044,0,0.26,0.146,0.354,0.302s0.094,0.31,0.18,0.517
				c0.086,0.208,0.207,0.061,0.25,0.371c0.042,0.311-0.035,0.371,0.076,0.491c0.111,0.122,0.231,0.182,0.309,0.389
				c0.078,0.207,0.172,0.431,0.188,0.604c0.018,0.172,0,0.337,0.018,0.371c0.011,0.021,0.083,0.051,0.202,0.051
				c0.078,0,0.18-0.013,0.295-0.051c0.292-0.096,0.627-0.328,0.73-0.423c0.102-0.095,0.042-0.216,0.368-0.284
				c0.326-0.069,0.454-0.25,0.481-0.362c0.025-0.112,0.196-1,0.017-1.096c-0.181-0.094-0.344-0.25-0.37-0.31
				c-0.031-0.01-0.058,0.191-0.119,0.216c-0.051,0.018-0.026,0.271-0.148,0.271c-0.044,0-0.105-0.031-0.195-0.117
				c-0.343-0.328-0.438-0.689-0.473-0.802c-0.033-0.112-0.196-0.389-0.145-0.492c0.033-0.067,0.111-0.123,0.178-0.123
				c0.035,0,0.066,0.016,0.087,0.055c0.061,0.112-0.059,0.078,0.216,0.311c0.275,0.232,0.343,0.354,0.523,0.379
				c0.036,0.005,0.075,0.008,0.115,0.008c0.165,0,0.346-0.033,0.374-0.033C207.378,18.305,197.83,16.485,197.787,16.58z"/>
		</defs>
		<clipPath id="SVGID_270_">
			<use xlink:href="#SVGID_285_"  overflow="visible"/>
		</clipPath>
		<g clip-path="url(#SVGID_270_)">
			<defs>
				<rect id="SVGID_287_" x="-588.167" y="-344" width="1440" height="1097"/>
			</defs>
			<clipPath id="SVGID_272_">
				<use xlink:href="#SVGID_287_"  overflow="visible"/>
			</clipPath>
		</g>
	</g>
	<g>
		<defs>
			<path id="SVGID_289_" d="M221.078,27.499c-0.096-0.078-0.302-0.362-0.318-0.388c-0.018-0.026-0.215-0.371-0.343-0.578
				c-0.13-0.207-0.087-0.25-0.104-0.405s-0.017-0.232-0.077-0.448c-0.06-0.216-0.06-0.182-0.103-0.328s-0.146-0.259-0.146-0.259
				s-0.009,0.086-0.062,0.396c-0.052,0.311-0.017,0.311-0.052,0.406c-0.033,0.095-0.033,0.483-0.033,0.483s-0.029,0.042-0.117,0.042
				c-0.048,0-0.113-0.012-0.199-0.052c-0.25-0.112-0.438-0.241-0.447-0.482c-0.008-0.241,0.026-0.311-0.008-0.362
				c-0.035-0.052-0.172-0.086-0.361-0.095l-0.013-0.001c-0.183,0-0.335,0.176-0.52,0.277c-0.104,0.057-0.187,0.08-0.267,0.08
				c-0.064,0-0.129-0.015-0.205-0.037c-0.023-0.008-0.045-0.012-0.062-0.012c-0.102,0-0.091,0.125-0.237,0.287
				c-0.171,0.19-0.359,0.311-0.523,0.38c-0.163,0.069,0.052,0.353-0.103,0.491c-0.154,0.138-0.241,0.104-0.576,0.198
				c-0.333,0.094-0.145,0.189-0.273,0.388c-0.129,0.199-0.207,0.337-0.275,0.587c-0.067,0.25,0.068,0.346,0.068,0.578
				s0.121,0.379,0.087,0.681c-0.035,0.302,0,0.111,0.231,0.682c0.068,0.168,0.096,0.229,0.116,0.229
				c0.046,0,0.034-0.353,0.373-0.444c0.155-0.042,0.226-0.057,0.266-0.057c0.083,0,0.027,0.065,0.317,0.083
				c0.063,0.003,0.11,0.006,0.145,0.006c0.202,0-0.013-0.059,0.053-0.109c0.078-0.061,0.266-0.173,0.395-0.216
				s0.344-0.068,0.695-0.086c0.031-0.002,0.059-0.003,0.082-0.003c0.238,0,0.09,0.077,0.27,0.227
				c0.123,0.103,0.18,0.145,0.209,0.145c0.019,0,0.025-0.016,0.031-0.042c0.012-0.047,0.15-0.074,0.238-0.074
				c0.038,0,0.065,0.004,0.071,0.014c0.017,0.036,0.128,0.243,0.18,0.32c0.052,0.078,0.231,0.268,0.343,0.5
				c0.047,0.1,0.062,0.128,0.063,0.128l-0.021-0.05c0,0,0.824,0,0.986-0.069c0.164-0.069,0.146-0.19,0.275-0.57
				c0.129-0.379,0.267-0.249,0.48-0.49c0.215-0.241,0.104-0.957-0.008-1.174C221.489,28.06,221.171,27.576,221.078,27.499z"/>
		</defs>
		<clipPath id="SVGID_274_">
			<use xlink:href="#SVGID_289_"  overflow="visible"/>
		</clipPath>
		<g clip-path="url(#SVGID_274_)">
			<defs>
				<rect id="SVGID_291_" x="-588.167" y="-344" width="1440" height="1097"/>
			</defs>
			<clipPath id="SVGID_276_">
				<use xlink:href="#SVGID_291_"  overflow="visible"/>
			</clipPath>
		</g>
	</g>
	<g>
		<defs>
			<path id="SVGID_293_" d="M214.199,23.273c-0.135-0.239-0.097-0.175-0.207-0.388c-0.107-0.214-0.004-0.182-0.18-0.312
				c-0.174-0.129-0.301-0.148-0.372-0.252s-0.213-0.213-0.329-0.362c-0.096-0.124-0.236-0.211-0.281-0.211l-0.015,0.011
				c0,0.046,0.063,0.098,0.122,0.169s-0.135,0.031,0.143,0.361c0.276,0.33,0.469,0.492,0.476,0.615
				c0.007,0.122-0.187,0.4,0.091,0.588c0.275,0.188,0.496,0.232,0.566,0.35c0.07,0.116,0.16,0.148,0.16,0.148
				s-0.025-0.361-0.064-0.434C214.269,23.487,214.334,23.514,214.199,23.273z"/>
		</defs>
		<clipPath id="SVGID_278_">
			<use xlink:href="#SVGID_293_"  overflow="visible"/>
		</clipPath>
		<g clip-path="url(#SVGID_278_)">
			<defs>
				<rect id="SVGID_295_" x="-588.167" y="-344" width="1440" height="1097"/>
			</defs>
			<clipPath id="SVGID_280_">
				<use xlink:href="#SVGID_295_"  overflow="visible"/>
			</clipPath>
		</g>
	</g>
	<g>
		<defs>
			<path id="SVGID_297_" d="M210.675,21.083c-0.039-0.078-0.1-0.104-0.1-0.104s0.014,0.138-0.013,0.259
				c-0.025,0.121-0.063,0.061-0.063,0.207s0.004,0.237,0.063,0.258c0.04,0.016,0.169,0.068,0.25,0.068
				c0.041,0,0.071-0.014,0.067-0.055c-0.009-0.121-0.082-0.207-0.104-0.327C210.756,21.269,210.713,21.161,210.675,21.083z"/>
		</defs>
		<clipPath id="SVGID_282_">
			<use xlink:href="#SVGID_297_"  overflow="visible"/>
		</clipPath>
		<g clip-path="url(#SVGID_282_)">
			<defs>
				<rect id="SVGID_299_" x="-588.167" y="-344" width="1440" height="1097"/>
			</defs>
			<clipPath id="SVGID_284_">
				<use xlink:href="#SVGID_299_"  overflow="visible"/>
			</clipPath>
		</g>
	</g>
	<g>
		<defs>
			<path id="SVGID_301_" d="M179.544,8.384l0.053-0.004c0.197-0.025,0.232-0.077,0.31-0.111c0.077-0.035-0.043-0.095,0.206-0.121
				c0.172-0.018,0.241-0.048,0.295-0.048c0.025,0,0.047,0.006,0.073,0.022c0.087,0.052,0.197,0.13,0.018,0.206
				c-0.18,0.078-0.283,0.104,0.017,0.182c0.205,0.053,0.291,0.069,0.355,0.069c0.031,0,0.059-0.003,0.092-0.009l0.024-0.001
				c0.118,0,0.376,0.097,0.345,0.113c-0.035,0.018-0.053,0.043-0.327,0.043c-0.183,0-0.274-0.069-0.317-0.069
				c-0.021,0-0.031,0.017-0.034,0.069c-0.009,0.154,0.378,0.077,0.593,0.173c0.152,0.066-0.043,0.152,0.101,0.152
				c0.058,0,0.173-0.015,0.388-0.05c0.506-0.082,0.688-0.12,0.805-0.12c0.055,0,0.096,0.009,0.147,0.026
				c0.097,0.03,0.354,0.091,0.495,0.091c0.097,0,0.138-0.029,0.028-0.118l-0.505-0.232c0,0-0.318-0.172-0.387-0.293
				c-0.07-0.121-0.112-0.241-0.181-0.25l-0.012-0.001c-0.059,0-0.076,0.065-0.108,0.13c-0.021,0.044-0.02,0.084-0.094,0.084
				c-0.045,0-0.115-0.014-0.232-0.049c-0.316-0.095-1.063-0.293-1.063-0.293s-0.317-0.164-0.386-0.173l-0.02-0.001
				c-0.094,0-0.352,0.046-0.471,0.07l-0.03,0.003c-0.028,0-0.048-0.01-0.062-0.019l-0.039-0.019c-0.018,0-0.037,0.017-0.074,0.068
				c-0.104,0.146-0.138,0.233-0.138,0.31C179.409,8.286,179.402,8.384,179.544,8.384z"/>
		</defs>
		<clipPath id="SVGID_286_">
			<use xlink:href="#SVGID_301_"  overflow="visible"/>
		</clipPath>
		<g clip-path="url(#SVGID_286_)">
			<defs>
				<rect id="SVGID_303_" x="-588.167" y="-344" width="1440" height="1097"/>
			</defs>
			<clipPath id="SVGID_288_">
				<use xlink:href="#SVGID_303_"  overflow="visible"/>
			</clipPath>
		</g>
	</g>
	<g>
		<defs>
			<path id="SVGID_305_" d="M184.102,6.94c0.301,0.086,0.55,0.198,0.601,0.198c0.028,0,0.087-0.038,0.125-0.038
				c0.029,0,0.049,0.023,0.029,0.107c-0.043,0.189-0.188,0.405-0.188,0.405s0.44-0.185,0.73-0.185c0.024,0,0.046,0.001,0.067,0.003
				c0.207,0.025,0.221,0.06,0.407,0.06c0.069,0,0.161-0.004,0.296-0.017c0.498-0.043,0.814-0.18,0.814-0.345
				c0-0.164-0.283-0.172,0.268-0.336c0.548-0.164,0.574-0.164,0.926-0.294c0.352-0.129,0.326-0.181,0.464-0.215
				c0.136-0.034,0.196-0.12,0.196-0.12s-0.618-0.086-0.989-0.086c-0.058,0-0.108,0.003-0.152,0.008
				c-0.212,0.022-0.351,0.038-0.491,0.038c-0.069,0-0.141-0.003-0.221-0.013c-0.239-0.025-0.875-0.077-0.875-0.077
				s-0.24,0.017-0.454,0.103c-0.214,0.087-0.815,0.19-0.961,0.217c-0.146,0.025-0.138,0.051-0.009,0.111s0.224,0.104,0.326,0.173
				c0.104,0.068,0.3,0.129,0.086,0.138l-0.062,0.001c-0.182,0-0.317-0.037-0.418-0.13c-0.111-0.104-0.129-0.13-0.214-0.13
				c-0.045,0-0.124-0.019-0.198-0.019c-0.07,0-0.139,0.017-0.171,0.079C183.964,6.707,183.802,6.854,184.102,6.94z"/>
		</defs>
		<clipPath id="SVGID_290_">
			<use xlink:href="#SVGID_305_"  overflow="visible"/>
		</clipPath>
		<g clip-path="url(#SVGID_290_)">
			<defs>
				<rect id="SVGID_307_" x="-588.167" y="-344" width="1440" height="1097"/>
			</defs>
			<clipPath id="SVGID_292_">
				<use xlink:href="#SVGID_307_"  overflow="visible"/>
			</clipPath>
		</g>
	</g>
	<g>
		<defs>
			<path id="SVGID_309_" d="M184.136,7.682c0.309,0.104,0.163,0.087,0.438,0.138c0.182,0.035,0.388,0.084,0.579,0.084
				c0.099,0,0.194-0.014,0.279-0.049c0.19-0.079,0.31-0.139,0.406-0.139c0.029,0,0.056,0.005,0.083,0.018
				c0.078,0.037,0.285,0.15,0.391,0.15c0.044,0,0.07-0.02,0.063-0.072c-0.017-0.115-0.089-0.137-0.139-0.137
				c-0.028,0-0.05,0.007-0.05,0.007s-0.42-0.055-0.638-0.055c-0.069,0-0.118,0.006-0.126,0.021
				c-0.025,0.045-0.338,0.117-0.574,0.117c-0.084,0-0.158-0.009-0.207-0.031c-0.188-0.086-0.343-0.12-0.334-0.216
				c0.008-0.095,0.146-0.164,0-0.198c-0.146-0.034-0.412-0.129-0.412-0.129s-0.197,0.146-0.129,0.181
				C183.835,7.406,183.828,7.578,184.136,7.682z"/>
		</defs>
		<clipPath id="SVGID_294_">
			<use xlink:href="#SVGID_309_"  overflow="visible"/>
		</clipPath>
		<g clip-path="url(#SVGID_294_)">
			<defs>
				<rect id="SVGID_311_" x="-588.167" y="-344" width="1440" height="1097"/>
			</defs>
			<clipPath id="SVGID_296_">
				<use xlink:href="#SVGID_311_"  overflow="visible"/>
			</clipPath>
		</g>
	</g>
	<g>
		<defs>
			<path id="SVGID_313_" d="M219.656,23.487c-0.129-0.063-0.26-0.141-0.37-0.141c-0.037,0-0.072,0.009-0.105,0.03
				c-0.129,0.084-0.231,0.194-0.231,0.278l-0.023,0.021c-0.059,0-0.214-0.098-0.268-0.132l-0.018-0.012l-0.188-0.014l0.008,0.239
				c0,0,0.32,0.098,0.495,0.137c0.173,0.039,0.181,0.221,0.205,0.381c0.024,0.153,0.003,0.301,0.157,0.301l0.029-0.003l0.042-0.002
				c0.132,0,0.067,0.094,0.126,0.17c0.064,0.085,0.373,0.175,0.404,0.175c0.033,0,0.175-0.214,0.258-0.466
				c0.021-0.061,0.043-0.085,0.068-0.085c0.077,0,0.172,0.242,0.261,0.37c0.116,0.168,0.321,0.227,0.394,0.298
				c0.018,0.019,0.047,0.026,0.074,0.026c0.078,0,0.166-0.058,0.105-0.104c-0.084-0.063,0.003-0.821-0.205-0.821h-0.008
				c-0.027,0.003-0.049,0.004-0.069,0.004c-0.149,0-0.153-0.062-0.271-0.152c-0.137-0.104-0.175-0.123-0.349-0.26
				C220.003,23.59,219.831,23.571,219.656,23.487z"/>
		</defs>
		<clipPath id="SVGID_298_">
			<use xlink:href="#SVGID_313_"  overflow="visible"/>
		</clipPath>
		<g clip-path="url(#SVGID_298_)">
			<defs>
				<rect id="SVGID_315_" x="-588.167" y="-344" width="1440" height="1097"/>
			</defs>
			<clipPath id="SVGID_300_">
				<use xlink:href="#SVGID_315_"  overflow="visible"/>
			</clipPath>
		</g>
	</g>
</g>
<g>
	<g>
		<defs>
			<rect id="SVGID_317_" x="85" width="58.835" height="39.195"/>
		</defs>
		<clipPath id="SVGID_302_">
			<use xlink:href="#SVGID_317_"  overflow="visible"/>
		</clipPath>
		<g clip-path="url(#SVGID_302_)">
			<defs>
				<rect id="SVGID_319_" x="-588" y="-344" width="1440" height="1097"/>
			</defs>
			<clipPath id="SVGID_304_">
				<use xlink:href="#SVGID_319_"  overflow="visible"/>
			</clipPath>
		</g>
	</g>
	<g>
		<defs>
			<rect id="SVGID_321_" x="85" width="58.835" height="39.195"/>
		</defs>
		<clipPath id="SVGID_306_">
			<use xlink:href="#SVGID_321_"  overflow="visible"/>
		</clipPath>
		<g clip-path="url(#SVGID_306_)">
			<defs>
				<rect id="SVGID_323_" x="-588" y="-344" width="1440" height="1097"/>
			</defs>
			<clipPath id="SVGID_308_">
				<use xlink:href="#SVGID_323_"  overflow="visible"/>
			</clipPath>
		</g>
	</g>
	<g>
		<defs>
			<circle id="SVGID_371_" cx="94.5" cy="11.5" r="2.5"/>
		</defs>
		<clipPath id="SVGID_310_">
			<use xlink:href="#SVGID_371_"  overflow="visible"/>
		</clipPath>
		<g clip-path="url(#SVGID_310_)">
			<defs>
				<rect id="SVGID_373_" x="-588" y="-344" width="1440" height="1097"/>
			</defs>
			<clipPath id="SVGID_312_">
				<use xlink:href="#SVGID_373_"  overflow="visible"/>
			</clipPath>
		</g>
	</g>
	<g>
		<defs>
			<circle id="SVGID_375_" cx="104" cy="24" r="2"/>
		</defs>
		<clipPath id="SVGID_314_">
			<use xlink:href="#SVGID_375_"  overflow="visible"/>
		</clipPath>
		<g clip-path="url(#SVGID_314_)">
			<defs>
				<rect id="SVGID_377_" x="-588" y="-344" width="1440" height="1097"/>
			</defs>
			<clipPath id="SVGID_316_">
				<use xlink:href="#SVGID_377_"  overflow="visible"/>
			</clipPath>
		</g>
	</g>
	<g>
		<defs>
			<circle id="SVGID_379_" cx="113.5" cy="15.5" r="1.5"/>
		</defs>
		<clipPath id="SVGID_318_">
			<use xlink:href="#SVGID_379_"  overflow="visible"/>
		</clipPath>
		<g clip-path="url(#SVGID_318_)">
			<defs>
				<rect id="SVGID_381_" x="-588" y="-344" width="1440" height="1097"/>
			</defs>
			<clipPath id="SVGID_320_">
				<use xlink:href="#SVGID_381_"  overflow="visible"/>
			</clipPath>
		</g>
	</g>
	<g>
		<defs>
			<circle id="SVGID_383_" cx="130" cy="18" r="1"/>
		</defs>
		<clipPath id="SVGID_322_">
			<use xlink:href="#SVGID_383_"  overflow="visible"/>
		</clipPath>
		<g clip-path="url(#SVGID_322_)">
			<defs>
				<rect id="SVGID_385_" x="-588" y="-344" width="1440" height="1097"/>
			</defs>
			<clipPath id="SVGID_324_">
				<use xlink:href="#SVGID_385_"  overflow="visible"/>
			</clipPath>
		</g>
	</g>
	<g>
		<defs>
			<circle id="SVGID_387_" cx="133" cy="17" r="1"/>
		</defs>
		<clipPath id="SVGID_326_">
			<use xlink:href="#SVGID_387_"  overflow="visible"/>
		</clipPath>
		<g clip-path="url(#SVGID_326_)">
			<defs>
				<rect id="SVGID_389_" x="-588" y="-344" width="1440" height="1097"/>
			</defs>
			<clipPath id="SVGID_328_">
				<use xlink:href="#SVGID_389_"  overflow="visible"/>
			</clipPath>
		</g>
	</g>
	<g>
		<defs>
			<circle id="SVGID_391_" cx="134" cy="14" r="1"/>
		</defs>
		<clipPath id="SVGID_330_">
			<use xlink:href="#SVGID_391_"  overflow="visible"/>
		</clipPath>
		<g clip-path="url(#SVGID_330_)">
			<defs>
				<rect id="SVGID_393_" x="-588" y="-344" width="1440" height="1097"/>
			</defs>
			<clipPath id="SVGID_332_">
				<use xlink:href="#SVGID_393_"  overflow="visible"/>
			</clipPath>
		</g>
	</g>
	<g>
		<defs>
			<circle id="SVGID_395_" cx="133" cy="28" r="1"/>
		</defs>
		<clipPath id="SVGID_334_">
			<use xlink:href="#SVGID_395_"  overflow="visible"/>
		</clipPath>
		<g clip-path="url(#SVGID_334_)">
			<defs>
				<rect id="SVGID_397_" x="-588" y="-344" width="1440" height="1097"/>
			</defs>
			<clipPath id="SVGID_336_">
				<use xlink:href="#SVGID_397_"  overflow="visible"/>
			</clipPath>
		</g>
	</g>
</g>
</svg>
