<?xml version="1.0" encoding="UTF-8"?>
<svg width="60px" height="40px" viewBox="0 0 60 40" version="1.1" xmlns="http://www.w3.org/2000/svg" xmlns:xlink="http://www.w3.org/1999/xlink">
    <!-- Generator: Sketch 43.1 (39012) - http://www.bohemiancoding.com/sketch -->
    <title>回归图</title>
    <desc>Created with Sketch.</desc>
    <defs></defs>
    <g id="Page-1" stroke="none" stroke-width="1" fill="none" fill-rule="evenodd">
        <g id="回归图">
            <g id="Group" transform="translate(-1.000000, 0.000000)">
                <path d="M31.25,0.5 L31.25,40.5" id="Line" stroke="#61D7D0" stroke-width="0.5" stroke-linecap="square"></path>
                <path d="M1,20.25 L61,20.25" id="Line-Copy" stroke="#61D7D0" stroke-width="0.5" stroke-linecap="square"></path>
                <path d="M1.04501317,14.9291431 L31,6.66992573" id="Path-2" stroke="#B8EDEA" stroke-width="0.5"></path>
                <path d="M1,31.1251771 C1,31.1251771 1.03063972,26.5107501 31,25.9829562" id="Path-4" stroke="#B8EDEA" stroke-width="0.5"></path>
                <path d="M32.4702387,17.6004977 C32.4702387,17.6004977 57.6859037,18.3415703 59.0865089,3.28578476" id="Path-3" stroke="#B8EDEA" stroke-width="0.5"></path>
                <path d="M33.3010494,39.8372838 C33.3010494,39.8372838 35.1585669,34.4104823 44.2437226,37.1238831 L54.2236283,33.8452917 C54.2236283,33.8452917 58.8018342,30.3764141 61.1978213,22.2038227" id="Path-5" stroke="#B8EDEA" stroke-width="0.5"></path>
                <circle id="Oval" fill="#61D7D0" cx="3" cy="16" r="1"></circle>
                <circle id="Oval-Copy" fill="#61D7D0" cx="6" cy="17" r="1"></circle>
                <circle id="Oval-Copy-2" fill="#61D7D0" cx="7" cy="15" r="1"></circle>
                <circle id="Oval-Copy-3" fill="#61D7D0" cx="9" cy="11" r="1"></circle>
                <circle id="Oval-Copy-4" fill="#61D7D0" cx="12" cy="10" r="1"></circle>
                <circle id="Oval-Copy-5" fill="#61D7D0" cx="15" cy="12" r="1"></circle>
                <circle id="Oval-Copy-6" fill="#61D7D0" cx="18" cy="13" r="1"></circle>
                <circle id="Oval-Copy-7" fill="#61D7D0" cx="20" cy="11" r="1"></circle>
                <circle id="Oval-Copy-8" fill="#61D7D0" cx="22" cy="9" r="1"></circle>
                <circle id="Oval-Copy-9" fill="#61D7D0" cx="24" cy="8" r="1"></circle>
                <circle id="Oval-Copy-10" fill="#61D7D0" cx="27" cy="10" r="1"></circle>
                <circle id="Oval-Copy-11" fill="#61D7D0" cx="28" cy="8" r="1"></circle>
                <circle id="Oval-Copy-12" fill="#61D7D0" cx="30" cy="6" r="1"></circle>
                <circle id="Oval-Copy-13" fill="#61D7D0" cx="35" cy="18" r="1"></circle>
                <circle id="Oval-Copy-24" fill="#61D7D0" cx="33" cy="38" r="1"></circle>
                <circle id="Oval-Copy-25" fill="#61D7D0" cx="38" cy="37" r="1"></circle>
                <circle id="Oval-Copy-26" fill="#61D7D0" cx="36" cy="36" r="1"></circle>
                <circle id="Oval-Copy-28" fill="#61D7D0" cx="40" cy="35" r="1"></circle>
                <circle id="Oval-Copy-30" fill="#61D7D0" cx="42" cy="38" r="1"></circle>
                <circle id="Oval-Copy-31" fill="#61D7D0" cx="45" cy="35" r="1"></circle>
                <circle id="Oval-Copy-32" fill="#61D7D0" cx="54" cy="36" r="1"></circle>
                <circle id="Oval-Copy-33" fill="#61D7D0" cx="59" cy="23" r="1"></circle>
                <circle id="Oval-Copy-14" fill="#61D7D0" cx="38" cy="17" r="1"></circle>
                <circle id="Oval-Copy-15" fill="#61D7D0" cx="41" cy="17" r="1"></circle>
                <circle id="Oval-Copy-16" fill="#61D7D0" cx="44" cy="15" r="1"></circle>
                <circle id="Oval-Copy-17" fill="#61D7D0" cx="47" cy="16" r="1"></circle>
                <circle id="Oval-Copy-18" fill="#61D7D0" cx="50" cy="13" r="1"></circle>
                <circle id="Oval-Copy-19" fill="#61D7D0" cx="53" cy="14" r="1"></circle>
                <circle id="Oval-Copy-20" fill="#61D7D0" cx="56" cy="12" r="1"></circle>
                <circle id="Oval-Copy-21" fill="#61D7D0" cx="56" cy="8" r="1"></circle>
                <circle id="Oval-2-Copy-6" fill="#B8EDEA" cx="2" cy="29" r="2"></circle>
                <circle id="Oval-2-Copy-12" fill="#B8EDEA" cx="5.5" cy="30.5" r="1.5"></circle>
                <circle id="Oval-Copy-23" fill="#61D7D0" cx="60" cy="6" r="1"></circle>
                <circle id="Oval-2" fill="#61D7D0" cx="3" cy="31" r="2"></circle>
                <circle id="Oval-2-Copy" fill="#61D7D0" cx="6.4914781" cy="27.4914781" r="1.4914781"></circle>
                <circle id="Oval-2-Copy-2" fill="#61D7D0" cx="3.9914781" cy="27.9914781" r="1"></circle>
                <circle id="Oval-2-Copy-3" fill="#61D7D0" cx="9" cy="28" r="1"></circle>
                <circle id="Oval-2-Copy-4" fill="#61D7D0" cx="11" cy="29" r="1"></circle>
                <circle id="Oval-2-Copy-5" fill="#61D7D0" cx="13" cy="28" r="1"></circle>
                <circle id="Oval-2-Copy-7" fill="#61D7D0" cx="15.5" cy="25.5" r="1"></circle>
                <circle id="Oval-2-Copy-8" fill="#61D7D0" cx="18" cy="27" r="1"></circle>
                <circle id="Oval-2-Copy-9" fill="#61D7D0" cx="20.5" cy="25.5" r="1"></circle>
                <circle id="Oval-2-Copy-10" fill="#61D7D0" cx="23.5" cy="26.5" r="1"></circle>
                <circle id="Oval-2-Copy-11" fill="#61D7D0" cx="26.5" cy="26.5" r="1"></circle>
            </g>
            <rect id="Rectangle-Copy" stroke="#DDDDDD" x="0.5" y="0.5" width="59" height="39"></rect>
        </g>
    </g>
</svg>